<svg xmlns="http://www.w3.org/2000/svg" width="600" height="600" viewBox="0 0 600 600" role="img" aria-label="hong_kong_polyu transparent vector logo">
<title>Transparent vector logo</title>
<g fill-rule="evenodd" clip-rule="evenodd">
<path fill="#8F1329" d="M 271.0 309.0 L 265.0 315.0 L 264.0 315.0 L 245.0 334.0 L 245.0 335.0 L 277.0 367.0 L 277.0 368.0 L 252.0 393.0 L 252.0 394.0 L 246.0 401.0 L 241.0 411.0 L 241.0 413.0 L 239.0 416.0 L 238.0 423.0 L 237.0 424.0 L 237.0 429.0 L 236.0 430.0 L 236.0 444.0 L 237.0 445.0 L 237.0 450.0 L 238.0 451.0 L 239.0 458.0 L 241.0 461.0 L 241.0 463.0 L 246.0 473.0 L 252.0 480.0 L 252.0 481.0 L 259.0 488.0 L 260.0 488.0 L 264.0 492.0 L 270.0 495.0 L 272.0 497.0 L 274.0 498.0 L 276.0 498.0 L 279.0 500.0 L 284.0 501.0 L 285.0 502.0 L 288.0 502.0 L 289.0 503.0 L 293.0 503.0 L 294.0 504.0 L 313.0 504.0 L 314.0 503.0 L 319.0 503.0 L 320.0 502.0 L 323.0 502.0 L 324.0 501.0 L 326.0 501.0 L 329.0 499.0 L 331.0 499.0 L 337.0 496.0 L 339.0 494.0 L 343.0 492.0 L 346.0 489.0 L 347.0 489.0 L 457.0 379.0 L 455.0 379.0 L 454.0 380.0 L 446.0 380.0 L 445.0 381.0 L 437.0 381.0 L 436.0 380.0 L 428.0 380.0 L 427.0 379.0 L 423.0 379.0 L 422.0 378.0 L 419.0 378.0 L 418.0 377.0 L 416.0 377.0 L 415.0 376.0 L 410.0 375.0 L 322.0 463.0 L 321.0 463.0 L 319.0 465.0 L 315.0 467.0 L 313.0 467.0 L 312.0 468.0 L 308.0 468.0 L 307.0 469.0 L 301.0 469.0 L 300.0 468.0 L 296.0 468.0 L 295.0 467.0 L 293.0 467.0 L 287.0 464.0 L 285.0 462.0 L 284.0 462.0 L 279.0 457.0 L 279.0 456.0 L 277.0 454.0 L 274.0 448.0 L 274.0 446.0 L 273.0 445.0 L 273.0 440.0 L 272.0 439.0 L 272.0 436.0 L 273.0 435.0 L 273.0 430.0 L 274.0 429.0 L 275.0 424.0 L 278.0 420.0 L 278.0 419.0 L 303.0 394.0 L 304.0 394.0 L 336.0 426.0 L 338.0 425.0 L 362.0 401.0 L 362.0 400.0 Z M 142.0 236.0 L 139.0 238.0 L 137.0 238.0 L 135.0 239.0 L 133.0 241.0 L 130.0 242.0 L 128.0 244.0 L 124.0 246.0 L 113.0 257.0 L 113.0 258.0 L 110.0 261.0 L 109.0 264.0 L 107.0 266.0 L 103.0 274.0 L 103.0 276.0 L 101.0 280.0 L 101.0 283.0 L 100.0 284.0 L 100.0 288.0 L 99.0 289.0 L 99.0 310.0 L 100.0 311.0 L 100.0 315.0 L 101.0 316.0 L 101.0 319.0 L 102.0 320.0 L 102.0 322.0 L 104.0 325.0 L 104.0 327.0 L 107.0 333.0 L 109.0 335.0 L 111.0 339.0 L 114.0 342.0 L 114.0 343.0 L 224.0 453.0 L 223.0 451.0 L 223.0 444.0 L 222.0 443.0 L 222.0 431.0 L 223.0 430.0 L 223.0 423.0 L 224.0 422.0 L 224.0 418.0 L 225.0 417.0 L 225.0 415.0 L 226.0 414.0 L 226.0 411.0 L 228.0 408.0 L 228.0 406.0 L 140.0 318.0 L 140.0 317.0 L 138.0 315.0 L 136.0 311.0 L 136.0 309.0 L 135.0 308.0 L 135.0 304.0 L 134.0 303.0 L 134.0 296.0 L 135.0 295.0 L 135.0 291.0 L 140.0 281.0 L 147.0 274.0 L 148.0 274.0 L 150.0 272.0 L 154.0 270.0 L 156.0 270.0 L 157.0 269.0 L 161.0 269.0 L 162.0 268.0 L 169.0 268.0 L 170.0 269.0 L 174.0 269.0 L 175.0 270.0 L 177.0 270.0 L 181.0 272.0 L 183.0 274.0 L 184.0 274.0 L 209.0 299.0 L 209.0 300.0 L 177.0 332.0 L 202.0 357.0 L 203.0 357.0 L 294.0 266.0 L 269.0 241.0 L 268.0 241.0 L 236.0 273.0 L 235.0 273.0 L 209.0 247.0 L 208.0 247.0 L 202.0 242.0 L 190.0 236.0 L 188.0 236.0 L 184.0 234.0 L 181.0 234.0 L 180.0 233.0 L 175.0 233.0 L 174.0 232.0 L 158.0 232.0 L 157.0 233.0 L 152.0 233.0 L 151.0 234.0 L 148.0 234.0 L 147.0 235.0 Z M 383.0 146.0 L 384.0 148.0 L 384.0 155.0 L 385.0 156.0 L 385.0 168.0 L 384.0 169.0 L 384.0 176.0 L 383.0 177.0 L 383.0 180.0 L 382.0 181.0 L 382.0 184.0 L 381.0 185.0 L 381.0 187.0 L 380.0 188.0 L 379.0 193.0 L 468.0 282.0 L 471.0 288.0 L 471.0 290.0 L 472.0 291.0 L 472.0 295.0 L 473.0 296.0 L 473.0 303.0 L 472.0 304.0 L 472.0 307.0 L 471.0 308.0 L 470.0 313.0 L 468.0 315.0 L 466.0 319.0 L 461.0 324.0 L 460.0 324.0 L 458.0 326.0 L 452.0 329.0 L 450.0 329.0 L 449.0 330.0 L 443.0 330.0 L 442.0 331.0 L 440.0 330.0 L 434.0 330.0 L 433.0 329.0 L 428.0 328.0 L 426.0 326.0 L 423.0 325.0 L 398.0 300.0 L 398.0 299.0 L 430.0 267.0 L 430.0 266.0 L 405.0 241.0 L 314.0 332.0 L 314.0 333.0 L 339.0 358.0 L 371.0 326.0 L 372.0 326.0 L 397.0 351.0 L 398.0 351.0 L 401.0 354.0 L 402.0 354.0 L 407.0 358.0 L 415.0 362.0 L 417.0 362.0 L 420.0 364.0 L 423.0 364.0 L 424.0 365.0 L 427.0 365.0 L 428.0 366.0 L 434.0 366.0 L 435.0 367.0 L 448.0 367.0 L 449.0 366.0 L 454.0 366.0 L 455.0 365.0 L 462.0 364.0 L 465.0 362.0 L 467.0 362.0 L 477.0 357.0 L 483.0 352.0 L 484.0 352.0 L 493.0 343.0 L 493.0 342.0 L 496.0 339.0 L 496.0 338.0 L 500.0 333.0 L 503.0 327.0 L 503.0 325.0 L 506.0 319.0 L 506.0 316.0 L 507.0 315.0 L 507.0 311.0 L 508.0 310.0 L 508.0 289.0 L 507.0 288.0 L 507.0 284.0 L 506.0 283.0 L 506.0 280.0 L 505.0 279.0 L 504.0 274.0 L 500.0 266.0 L 498.0 264.0 L 497.0 261.0 L 494.0 258.0 L 494.0 257.0 Z M 283.0 97.0 L 282.0 98.0 L 280.0 98.0 L 268.0 104.0 L 266.0 106.0 L 262.0 108.0 L 150.0 220.0 L 152.0 219.0 L 157.0 219.0 L 158.0 218.0 L 173.0 218.0 L 174.0 219.0 L 180.0 219.0 L 181.0 220.0 L 185.0 220.0 L 186.0 221.0 L 189.0 221.0 L 195.0 224.0 L 197.0 224.0 L 286.0 135.0 L 294.0 131.0 L 298.0 131.0 L 299.0 130.0 L 308.0 130.0 L 309.0 131.0 L 312.0 131.0 L 313.0 132.0 L 315.0 132.0 L 319.0 134.0 L 321.0 136.0 L 322.0 136.0 L 328.0 142.0 L 328.0 143.0 L 330.0 145.0 L 333.0 151.0 L 333.0 153.0 L 334.0 154.0 L 334.0 169.0 L 328.0 181.0 L 304.0 205.0 L 303.0 205.0 L 271.0 173.0 L 270.0 173.0 L 245.0 198.0 L 336.0 289.0 L 337.0 289.0 L 362.0 264.0 L 330.0 232.0 L 330.0 231.0 L 353.0 208.0 L 353.0 207.0 L 358.0 202.0 L 358.0 201.0 L 362.0 196.0 L 365.0 190.0 L 365.0 188.0 L 367.0 185.0 L 367.0 183.0 L 369.0 179.0 L 369.0 175.0 L 370.0 174.0 L 370.0 168.0 L 371.0 167.0 L 371.0 156.0 L 370.0 155.0 L 370.0 149.0 L 369.0 148.0 L 368.0 141.0 L 366.0 138.0 L 366.0 136.0 L 361.0 126.0 L 356.0 120.0 L 356.0 119.0 L 346.0 109.0 L 345.0 109.0 L 342.0 106.0 L 339.0 105.0 L 337.0 103.0 L 329.0 99.0 L 327.0 99.0 L 326.0 98.0 L 324.0 98.0 L 320.0 96.0 L 316.0 96.0 L 315.0 95.0 L 308.0 95.0 L 307.0 94.0 L 300.0 94.0 L 299.0 95.0 L 292.0 95.0 L 291.0 96.0 L 287.0 96.0 L 286.0 97.0 Z"/>
<path fill="#7F7F7F" d="M 352.0 529.0 L 347.0 527.0 L 344.0 530.0 L 340.0 530.0 L 339.0 531.0 L 334.0 531.0 L 333.0 532.0 L 327.0 532.0 L 326.0 533.0 L 320.0 533.0 L 319.0 534.0 L 315.0 534.0 L 316.0 536.0 L 317.0 535.0 L 322.0 535.0 L 323.0 534.0 L 329.0 534.0 L 330.0 533.0 L 332.0 535.0 L 332.0 539.0 L 333.0 540.0 L 333.0 546.0 L 334.0 547.0 L 334.0 552.0 L 335.0 553.0 L 335.0 559.0 L 336.0 560.0 L 336.0 561.0 L 334.0 563.0 L 328.0 563.0 L 327.0 564.0 L 322.0 564.0 L 321.0 565.0 L 316.0 565.0 L 317.0 567.0 L 318.0 566.0 L 323.0 566.0 L 324.0 565.0 L 330.0 565.0 L 331.0 564.0 L 337.0 564.0 L 338.0 563.0 L 343.0 563.0 L 344.0 562.0 L 350.0 562.0 L 351.0 561.0 L 357.0 561.0 L 358.0 560.0 L 360.0 560.0 L 359.0 558.0 L 357.0 557.0 L 355.0 557.0 L 352.0 560.0 L 348.0 560.0 L 347.0 561.0 L 341.0 561.0 L 340.0 562.0 L 338.0 561.0 L 338.0 556.0 L 337.0 555.0 L 337.0 550.0 L 336.0 549.0 L 336.0 543.0 L 335.0 542.0 L 335.0 536.0 L 334.0 534.0 L 336.0 532.0 L 342.0 532.0 L 343.0 531.0 L 349.0 531.0 L 350.0 530.0 L 352.0 530.0 Z M 251.0 527.0 L 251.0 529.0 L 255.0 529.0 L 257.0 531.0 L 256.0 532.0 L 256.0 538.0 L 254.0 540.0 L 252.0 540.0 L 250.0 539.0 L 250.0 541.0 L 253.0 541.0 L 255.0 543.0 L 255.0 546.0 L 254.0 547.0 L 254.0 553.0 L 253.0 554.0 L 249.0 554.0 L 247.0 555.0 L 248.0 558.0 L 263.0 553.0 L 264.0 554.0 L 264.0 556.0 L 269.0 556.0 L 270.0 557.0 L 273.0 557.0 L 274.0 558.0 L 274.0 564.0 L 273.0 565.0 L 266.0 565.0 L 265.0 564.0 L 260.0 564.0 L 259.0 563.0 L 257.0 563.0 L 258.0 565.0 L 261.0 565.0 L 262.0 566.0 L 269.0 566.0 L 270.0 567.0 L 277.0 567.0 L 278.0 568.0 L 284.0 568.0 L 285.0 569.0 L 290.0 569.0 L 290.0 568.0 L 287.0 565.0 L 286.0 565.0 L 284.0 567.0 L 277.0 566.0 L 276.0 565.0 L 276.0 561.0 L 278.0 558.0 L 285.0 558.0 L 286.0 559.0 L 288.0 559.0 L 289.0 558.0 L 286.0 555.0 L 282.0 557.0 L 280.0 556.0 L 278.0 556.0 L 277.0 555.0 L 277.0 553.0 L 279.0 549.0 L 281.0 549.0 L 282.0 550.0 L 285.0 550.0 L 286.0 552.0 L 288.0 551.0 L 288.0 548.0 L 289.0 547.0 L 289.0 540.0 L 290.0 539.0 L 290.0 534.0 L 292.0 532.0 L 292.0 531.0 L 290.0 529.0 L 288.0 530.0 L 281.0 530.0 L 280.0 529.0 L 273.0 529.0 L 272.0 528.0 L 270.0 528.0 L 268.0 526.0 L 268.0 529.0 L 267.0 530.0 L 264.0 527.0 L 262.0 528.0 L 255.0 528.0 L 254.0 527.0 Z M 257.0 543.0 L 258.0 542.0 L 261.0 542.0 L 262.0 543.0 L 264.0 543.0 L 265.0 542.0 L 266.0 543.0 L 266.0 546.0 L 265.0 548.0 L 266.0 549.0 L 268.0 549.0 L 269.0 548.0 L 273.0 548.0 L 276.0 550.0 L 275.0 551.0 L 275.0 554.0 L 274.0 555.0 L 266.0 555.0 L 263.0 553.0 L 264.0 552.0 L 260.0 552.0 L 259.0 553.0 L 257.0 553.0 L 256.0 552.0 L 256.0 549.0 L 257.0 548.0 Z M 280.0 540.0 L 285.0 540.0 L 287.0 542.0 L 287.0 544.0 L 286.0 545.0 L 286.0 548.0 L 285.0 549.0 L 284.0 548.0 L 279.0 548.0 L 278.0 547.0 L 279.0 545.0 L 279.0 541.0 Z M 270.0 538.0 L 271.0 539.0 L 276.0 539.0 L 277.0 540.0 L 277.0 542.0 L 276.0 543.0 L 276.0 546.0 L 275.0 547.0 L 270.0 547.0 L 268.0 545.0 L 268.0 543.0 L 269.0 542.0 L 269.0 539.0 Z M 280.0 532.0 L 281.0 531.0 L 285.0 531.0 L 288.0 533.0 L 288.0 537.0 L 286.0 539.0 L 282.0 539.0 L 280.0 537.0 Z M 270.0 531.0 L 271.0 530.0 L 277.0 530.0 L 278.0 531.0 L 278.0 534.0 L 277.0 535.0 L 277.0 537.0 L 276.0 538.0 L 274.0 538.0 L 273.0 537.0 L 270.0 537.0 L 269.0 536.0 L 270.0 534.0 Z M 260.0 530.0 L 267.0 530.0 L 268.0 531.0 L 268.0 533.0 L 267.0 534.0 L 267.0 541.0 L 266.0 542.0 L 265.0 542.0 L 262.0 539.0 L 260.0 541.0 L 258.0 540.0 L 258.0 534.0 Z M 192.0 513.0 L 191.0 514.0 L 193.0 516.0 L 193.0 518.0 L 194.0 519.0 L 194.0 522.0 L 196.0 522.0 L 197.0 520.0 L 195.0 516.0 Z M 412.0 511.0 L 408.0 511.0 L 405.0 515.0 L 397.0 519.0 L 395.0 519.0 L 393.0 520.0 L 392.0 519.0 L 391.0 514.0 L 389.0 511.0 L 390.0 510.0 L 390.0 508.0 L 388.0 509.0 L 386.0 509.0 L 386.0 511.0 L 388.0 513.0 L 389.0 515.0 L 389.0 517.0 L 390.0 518.0 L 390.0 520.0 L 391.0 521.0 L 382.0 526.0 L 380.0 526.0 L 374.0 529.0 L 375.0 530.0 L 377.0 530.0 L 379.0 528.0 L 381.0 528.0 L 390.0 523.0 L 392.0 524.0 L 392.0 528.0 L 393.0 529.0 L 393.0 539.0 L 392.0 540.0 L 392.0 543.0 L 391.0 544.0 L 391.0 546.0 L 386.0 556.0 L 387.0 556.0 L 387.0 555.0 L 389.0 553.0 L 394.0 543.0 L 394.0 539.0 L 395.0 538.0 L 395.0 528.0 L 394.0 527.0 L 394.0 525.0 L 395.0 524.0 L 402.0 531.0 L 403.0 531.0 L 405.0 533.0 L 406.0 533.0 L 408.0 535.0 L 412.0 537.0 L 421.0 539.0 L 424.0 536.0 L 424.0 535.0 L 415.0 535.0 L 414.0 534.0 L 412.0 534.0 L 404.0 530.0 L 395.0 522.0 L 397.0 520.0 L 407.0 515.0 L 409.0 515.0 L 413.0 513.0 Z M 199.0 504.0 L 199.0 506.0 L 201.0 509.0 L 201.0 512.0 L 202.0 513.0 L 204.0 512.0 L 205.0 513.0 L 205.0 515.0 L 206.0 516.0 L 208.0 516.0 L 210.0 518.0 L 209.0 520.0 L 209.0 522.0 L 207.0 524.0 L 206.0 524.0 L 199.0 520.0 L 199.0 522.0 L 202.0 524.0 L 204.0 524.0 L 206.0 526.0 L 203.0 529.0 L 199.0 531.0 L 197.0 531.0 L 196.0 532.0 L 193.0 532.0 L 192.0 531.0 L 195.0 528.0 L 195.0 527.0 L 193.0 529.0 L 189.0 531.0 L 186.0 534.0 L 182.0 536.0 L 182.0 540.0 L 183.0 540.0 L 191.0 532.0 L 193.0 533.0 L 198.0 533.0 L 199.0 532.0 L 201.0 532.0 L 202.0 534.0 L 199.0 539.0 L 199.0 541.0 L 197.0 545.0 L 201.0 549.0 L 203.0 550.0 L 205.0 550.0 L 208.0 552.0 L 210.0 552.0 L 216.0 555.0 L 219.0 555.0 L 219.0 550.0 L 221.0 547.0 L 220.0 547.0 L 215.0 552.0 L 214.0 552.0 L 206.0 548.0 L 204.0 548.0 L 202.0 547.0 L 200.0 545.0 L 200.0 543.0 L 202.0 540.0 L 204.0 540.0 L 209.0 543.0 L 211.0 543.0 L 215.0 545.0 L 216.0 544.0 L 215.0 542.0 L 218.0 538.0 L 220.0 539.0 L 222.0 543.0 L 226.0 543.0 L 226.0 542.0 L 220.0 535.0 L 219.0 532.0 L 220.0 531.0 L 228.0 535.0 L 230.0 534.0 L 227.0 530.0 L 226.0 531.0 L 223.0 531.0 L 220.0 529.0 L 220.0 527.0 L 223.0 523.0 L 225.0 524.0 L 227.0 524.0 L 230.0 526.0 L 231.0 524.0 L 229.0 522.0 L 229.0 521.0 L 227.0 522.0 L 224.0 522.0 L 223.0 521.0 L 224.0 518.0 L 225.0 517.0 L 227.0 517.0 L 226.0 515.0 L 223.0 514.0 L 221.0 519.0 L 219.0 520.0 L 214.0 517.0 L 214.0 515.0 L 216.0 513.0 L 218.0 513.0 L 215.0 510.0 L 213.0 511.0 L 212.0 513.0 L 212.0 515.0 L 210.0 516.0 L 206.0 514.0 L 204.0 512.0 L 204.0 510.0 L 203.0 508.0 Z M 203.0 536.0 L 205.0 533.0 L 207.0 533.0 L 215.0 537.0 L 214.0 538.0 L 214.0 540.0 L 212.0 542.0 L 211.0 542.0 L 210.0 541.0 L 208.0 541.0 L 204.0 539.0 L 203.0 538.0 Z M 205.0 530.0 L 209.0 527.0 L 211.0 527.0 L 215.0 529.0 L 218.0 532.0 L 218.0 534.0 L 217.0 535.0 L 214.0 535.0 L 211.0 533.0 L 209.0 533.0 L 207.0 532.0 Z M 213.0 519.0 L 215.0 519.0 L 220.0 522.0 L 217.0 528.0 L 215.0 528.0 L 210.0 525.0 Z M 475.0 487.0 L 470.0 487.0 L 470.0 490.0 L 460.0 499.0 L 459.0 499.0 L 458.0 497.0 L 463.0 487.0 L 459.0 487.0 L 459.0 488.0 L 451.0 496.0 L 450.0 496.0 L 443.0 503.0 L 442.0 503.0 L 444.0 504.0 L 448.0 500.0 L 449.0 500.0 L 457.0 492.0 L 459.0 493.0 L 458.0 496.0 L 455.0 498.0 L 455.0 499.0 L 457.0 501.0 L 448.0 510.0 L 447.0 510.0 L 443.0 514.0 L 442.0 514.0 L 443.0 515.0 L 445.0 515.0 L 455.0 505.0 L 456.0 505.0 L 458.0 503.0 L 460.0 504.0 L 461.0 507.0 L 458.0 510.0 L 457.0 510.0 L 457.0 511.0 L 461.0 509.0 L 463.0 510.0 L 464.0 509.0 L 464.0 505.0 L 462.0 503.0 L 461.0 500.0 L 464.0 497.0 L 465.0 497.0 Z M 150.0 473.0 L 148.0 473.0 L 151.0 476.0 L 152.0 476.0 L 155.0 479.0 L 156.0 479.0 L 161.0 483.0 L 158.0 486.0 L 151.0 480.0 L 150.0 480.0 L 144.0 474.0 L 143.0 474.0 L 143.0 476.0 L 150.0 482.0 L 151.0 482.0 L 155.0 486.0 L 154.0 487.0 L 141.0 487.0 L 140.0 486.0 L 137.0 486.0 L 136.0 485.0 L 134.0 485.0 L 134.0 486.0 L 136.0 486.0 L 140.0 488.0 L 144.0 488.0 L 145.0 489.0 L 154.0 489.0 L 155.0 491.0 L 149.0 497.0 L 148.0 497.0 L 145.0 494.0 L 144.0 494.0 L 142.0 490.0 L 141.0 490.0 L 139.0 494.0 L 130.0 504.0 L 130.0 506.0 L 131.0 507.0 L 132.0 506.0 L 134.0 506.0 L 138.0 510.0 L 139.0 510.0 L 142.0 513.0 L 143.0 513.0 L 148.0 518.0 L 147.0 520.0 L 149.0 520.0 L 156.0 512.0 L 156.0 511.0 L 159.0 508.0 L 161.0 508.0 L 161.0 505.0 L 160.0 504.0 L 157.0 504.0 L 154.0 501.0 L 152.0 500.0 L 153.0 497.0 L 157.0 492.0 L 159.0 493.0 L 165.0 505.0 L 165.0 507.0 L 166.0 509.0 L 168.0 510.0 L 168.0 505.0 L 165.0 499.0 L 160.0 493.0 L 159.0 491.0 L 160.0 489.0 L 164.0 493.0 L 165.0 493.0 L 173.0 500.0 L 175.0 501.0 L 176.0 500.0 L 175.0 499.0 L 175.0 496.0 L 171.0 496.0 L 169.0 495.0 L 165.0 491.0 L 164.0 491.0 L 161.0 488.0 L 161.0 487.0 L 163.0 485.0 L 165.0 485.0 L 167.0 487.0 L 172.0 489.0 L 176.0 492.0 L 176.0 489.0 L 174.0 487.0 L 172.0 487.0 L 166.0 484.0 L 164.0 482.0 L 159.0 480.0 L 157.0 478.0 L 153.0 476.0 Z M 137.0 500.0 L 141.0 502.0 L 152.0 511.0 L 152.0 513.0 L 149.0 516.0 L 147.0 515.0 L 144.0 512.0 L 143.0 512.0 L 134.0 504.0 L 134.0 503.0 Z M 142.0 494.0 L 149.0 500.0 L 150.0 500.0 L 153.0 503.0 L 154.0 503.0 L 157.0 506.0 L 154.0 510.0 L 153.0 510.0 L 150.0 507.0 L 149.0 507.0 L 146.0 504.0 L 145.0 504.0 L 141.0 500.0 L 139.0 499.0 L 139.0 497.0 Z M 452.0 466.0 L 449.0 466.0 L 448.0 469.0 L 444.0 473.0 L 442.0 474.0 L 440.0 474.0 L 439.0 475.0 L 439.0 478.0 L 436.0 480.0 L 434.0 480.0 L 433.0 482.0 L 430.0 482.0 L 430.0 484.0 L 428.0 488.0 L 425.0 490.0 L 435.0 500.0 L 433.0 501.0 L 433.0 502.0 L 435.0 504.0 L 435.0 506.0 L 437.0 510.0 L 438.0 509.0 L 438.0 507.0 L 436.0 504.0 L 438.0 502.0 L 439.0 502.0 L 447.0 494.0 L 448.0 494.0 L 463.0 480.0 L 464.0 481.0 L 464.0 484.0 L 465.0 484.0 L 465.0 479.0 L 466.0 477.0 L 465.0 476.0 L 463.0 477.0 L 461.0 480.0 L 452.0 469.0 L 453.0 467.0 Z M 434.0 501.0 L 435.0 500.0 L 436.0 501.0 L 435.0 502.0 Z M 445.0 492.0 L 446.0 491.0 L 447.0 492.0 L 446.0 493.0 Z M 450.0 487.0 L 451.0 489.0 L 447.0 492.0 L 446.0 491.0 L 446.0 489.0 L 448.0 487.0 Z M 442.0 480.0 L 445.0 482.0 L 445.0 485.0 L 440.0 488.0 L 443.0 488.0 L 444.0 487.0 L 445.0 488.0 L 445.0 490.0 L 443.0 493.0 L 444.0 495.0 L 440.0 499.0 L 438.0 499.0 L 436.0 497.0 L 441.0 492.0 L 441.0 491.0 L 438.0 491.0 L 438.0 493.0 L 435.0 496.0 L 432.0 493.0 L 435.0 490.0 L 437.0 489.0 L 437.0 488.0 L 440.0 485.0 L 440.0 483.0 Z M 438.0 480.0 L 439.0 481.0 L 439.0 484.0 L 437.0 487.0 L 434.0 487.0 L 434.0 489.0 L 431.0 492.0 L 429.0 490.0 L 430.0 487.0 L 435.0 481.0 L 437.0 481.0 Z M 450.0 470.0 L 452.0 472.0 L 452.0 473.0 L 448.0 477.0 L 447.0 477.0 L 447.0 478.0 L 449.0 478.0 L 452.0 475.0 L 454.0 475.0 L 455.0 476.0 L 455.0 478.0 L 450.0 482.0 L 452.0 483.0 L 456.0 479.0 L 458.0 480.0 L 458.0 482.0 L 453.0 487.0 L 447.0 484.0 L 448.0 481.0 L 446.0 481.0 L 445.0 479.0 L 442.0 479.0 L 441.0 478.0 L 441.0 476.0 L 443.0 474.0 L 445.0 474.0 L 448.0 471.0 Z M 494.0 427.0 L 486.0 438.0 L 487.0 439.0 L 490.0 436.0 L 492.0 436.0 L 496.0 439.0 L 497.0 439.0 L 503.0 444.0 L 504.0 446.0 L 504.0 448.0 L 510.0 460.0 L 510.0 463.0 L 509.0 464.0 L 509.0 465.0 L 510.0 465.0 L 515.0 459.0 L 515.0 457.0 L 512.0 458.0 L 510.0 456.0 L 505.0 445.0 L 506.0 444.0 L 515.0 444.0 L 516.0 445.0 L 520.0 445.0 L 521.0 446.0 L 521.0 448.0 L 520.0 450.0 L 521.0 450.0 L 528.0 440.0 L 527.0 439.0 L 524.0 442.0 L 518.0 442.0 L 517.0 441.0 L 506.0 441.0 L 505.0 440.0 L 503.0 440.0 L 500.0 437.0 L 499.0 437.0 L 494.0 433.0 L 494.0 429.0 L 495.0 428.0 Z M 115.0 415.0 L 114.0 415.0 L 114.0 417.0 L 115.0 418.0 L 115.0 421.0 L 111.0 425.0 L 110.0 425.0 L 107.0 428.0 L 106.0 428.0 L 104.0 430.0 L 100.0 432.0 L 97.0 435.0 L 96.0 435.0 L 85.0 443.0 L 83.0 442.0 L 83.0 441.0 L 80.0 437.0 L 80.0 433.0 L 84.0 428.0 L 82.0 427.0 L 75.0 433.0 L 75.0 435.0 L 78.0 438.0 L 78.0 439.0 L 80.0 441.0 L 82.0 445.0 L 85.0 448.0 L 85.0 449.0 L 93.0 460.0 L 97.0 457.0 L 98.0 457.0 L 100.0 455.0 L 101.0 455.0 L 102.0 453.0 L 99.0 453.0 L 98.0 454.0 L 93.0 454.0 L 88.0 449.0 L 87.0 447.0 L 89.0 445.0 L 90.0 445.0 L 92.0 443.0 L 96.0 441.0 L 99.0 438.0 L 100.0 438.0 L 102.0 436.0 L 106.0 434.0 L 109.0 431.0 L 110.0 431.0 L 112.0 429.0 L 113.0 429.0 L 117.0 426.0 L 120.0 426.0 L 123.0 429.0 L 124.0 429.0 L 124.0 427.0 Z M 509.0 401.0 L 507.0 405.0 L 505.0 407.0 L 503.0 411.0 L 503.0 413.0 L 504.0 413.0 L 507.0 410.0 L 508.0 410.0 L 532.0 422.0 L 534.0 424.0 L 533.0 427.0 L 529.0 431.0 L 527.0 431.0 L 526.0 430.0 L 524.0 430.0 L 523.0 431.0 L 529.0 434.0 L 531.0 434.0 L 535.0 426.0 L 537.0 424.0 L 543.0 412.0 L 541.0 410.0 L 537.0 408.0 L 535.0 408.0 L 535.0 409.0 L 539.0 413.0 L 539.0 415.0 L 538.0 416.0 L 538.0 418.0 L 536.0 420.0 L 534.0 420.0 L 518.0 412.0 L 516.0 410.0 L 511.0 408.0 L 509.0 406.0 Z M 517.0 381.0 L 515.0 385.0 L 515.0 387.0 L 513.0 390.0 L 513.0 392.0 L 512.0 394.0 L 513.0 394.0 L 515.0 391.0 L 519.0 391.0 L 520.0 392.0 L 522.0 392.0 L 525.0 394.0 L 527.0 394.0 L 530.0 396.0 L 532.0 396.0 L 535.0 398.0 L 537.0 398.0 L 543.0 401.0 L 544.0 402.0 L 544.0 407.0 L 545.0 407.0 L 545.0 405.0 L 549.0 397.0 L 549.0 394.0 L 545.0 398.0 L 544.0 398.0 L 543.0 397.0 L 538.0 396.0 L 535.0 394.0 L 533.0 394.0 L 530.0 392.0 L 528.0 392.0 L 525.0 390.0 L 523.0 390.0 L 519.0 388.0 L 517.0 386.0 L 517.0 383.0 L 518.0 382.0 Z M 523.0 360.0 L 524.0 363.0 L 522.0 365.0 L 520.0 369.0 L 520.0 376.0 L 522.0 378.0 L 522.0 379.0 L 523.0 379.0 L 525.0 381.0 L 532.0 381.0 L 536.0 379.0 L 540.0 375.0 L 541.0 375.0 L 546.0 371.0 L 551.0 371.0 L 554.0 374.0 L 554.0 379.0 L 551.0 382.0 L 549.0 383.0 L 543.0 383.0 L 543.0 385.0 L 546.0 385.0 L 547.0 386.0 L 551.0 386.0 L 553.0 387.0 L 553.0 385.0 L 552.0 384.0 L 554.0 382.0 L 556.0 378.0 L 556.0 373.0 L 553.0 369.0 L 551.0 368.0 L 549.0 368.0 L 548.0 367.0 L 545.0 367.0 L 541.0 369.0 L 533.0 376.0 L 531.0 377.0 L 525.0 377.0 L 522.0 374.0 L 522.0 368.0 L 526.0 364.0 L 528.0 363.0 L 533.0 363.0 L 534.0 362.0 L 533.0 361.0 L 528.0 361.0 L 527.0 360.0 Z M 85.0 356.0 L 76.0 357.0 L 76.0 358.0 L 79.0 358.0 L 80.0 359.0 L 82.0 359.0 L 84.0 361.0 L 87.0 367.0 L 87.0 369.0 L 88.0 370.0 L 88.0 372.0 L 86.0 374.0 L 81.0 375.0 L 78.0 377.0 L 76.0 377.0 L 75.0 378.0 L 73.0 376.0 L 73.0 374.0 L 71.0 371.0 L 71.0 367.0 L 74.0 364.0 L 74.0 363.0 L 72.0 364.0 L 70.0 364.0 L 69.0 365.0 L 67.0 365.0 L 66.0 366.0 L 64.0 366.0 L 63.0 367.0 L 63.0 368.0 L 67.0 368.0 L 69.0 370.0 L 70.0 372.0 L 70.0 374.0 L 71.0 375.0 L 71.0 377.0 L 72.0 378.0 L 69.0 380.0 L 67.0 380.0 L 61.0 383.0 L 59.0 383.0 L 58.0 382.0 L 57.0 377.0 L 55.0 374.0 L 55.0 370.0 L 58.0 367.0 L 58.0 366.0 L 52.0 368.0 L 52.0 371.0 L 54.0 374.0 L 54.0 376.0 L 55.0 377.0 L 56.0 382.0 L 58.0 385.0 L 58.0 387.0 L 60.0 391.0 L 61.0 391.0 L 60.0 388.0 L 63.0 385.0 L 68.0 384.0 L 71.0 382.0 L 73.0 382.0 L 74.0 381.0 L 79.0 380.0 L 85.0 377.0 L 90.0 377.0 L 92.0 379.0 L 92.0 381.0 L 93.0 382.0 L 93.0 385.0 L 91.0 387.0 L 67.0 399.0 L 66.0 399.0 L 63.0 396.0 L 62.0 396.0 L 67.0 407.0 L 68.0 407.0 L 68.0 403.0 L 70.0 401.0 L 78.0 397.0 L 80.0 397.0 L 81.0 398.0 L 86.0 408.0 L 86.0 410.0 L 84.0 412.0 L 78.0 415.0 L 76.0 415.0 L 75.0 416.0 L 73.0 415.0 L 72.0 413.0 L 71.0 413.0 L 71.0 415.0 L 76.0 424.0 L 77.0 424.0 L 76.0 422.0 L 76.0 420.0 L 78.0 418.0 L 102.0 406.0 L 104.0 406.0 L 107.0 409.0 L 107.0 407.0 L 102.0 397.0 L 101.0 397.0 L 101.0 402.0 L 99.0 404.0 L 89.0 409.0 L 87.0 407.0 L 82.0 397.0 L 82.0 395.0 L 83.0 394.0 L 93.0 389.0 L 95.0 389.0 L 98.0 392.0 L 99.0 391.0 L 93.0 380.0 L 93.0 378.0 L 91.0 375.0 L 91.0 373.0 L 90.0 372.0 L 89.0 367.0 L 87.0 364.0 L 87.0 362.0 L 86.0 361.0 Z M 529.0 329.0 L 529.0 333.0 L 528.0 334.0 L 528.0 340.0 L 529.0 340.0 L 529.0 338.0 L 531.0 336.0 L 536.0 336.0 L 537.0 337.0 L 542.0 337.0 L 544.0 339.0 L 544.0 341.0 L 542.0 343.0 L 540.0 343.0 L 529.0 349.0 L 527.0 349.0 L 525.0 352.0 L 525.0 357.0 L 526.0 357.0 L 526.0 355.0 L 529.0 352.0 L 531.0 351.0 L 533.0 351.0 L 542.0 346.0 L 544.0 347.0 L 545.0 352.0 L 548.0 355.0 L 550.0 356.0 L 555.0 356.0 L 559.0 354.0 L 559.0 353.0 L 561.0 351.0 L 561.0 349.0 L 562.0 348.0 L 562.0 345.0 L 563.0 344.0 L 563.0 339.0 L 564.0 338.0 L 564.0 333.0 L 563.0 333.0 L 563.0 335.0 L 561.0 337.0 L 556.0 337.0 L 555.0 336.0 L 550.0 336.0 L 549.0 335.0 L 544.0 335.0 L 543.0 334.0 L 534.0 333.0 L 531.0 331.0 L 531.0 328.0 Z M 546.0 339.0 L 548.0 338.0 L 549.0 339.0 L 554.0 339.0 L 555.0 340.0 L 559.0 340.0 L 561.0 342.0 L 561.0 345.0 L 560.0 346.0 L 560.0 348.0 L 556.0 352.0 L 554.0 353.0 L 552.0 352.0 L 550.0 352.0 L 546.0 348.0 Z M 531.0 300.0 L 531.0 305.0 L 530.0 306.0 L 530.0 325.0 L 532.0 326.0 L 535.0 326.0 L 536.0 327.0 L 538.0 327.0 L 538.0 326.0 L 536.0 325.0 L 532.0 321.0 L 532.0 310.0 L 534.0 308.0 L 546.0 308.0 L 548.0 310.0 L 548.0 316.0 L 547.0 317.0 L 547.0 319.0 L 545.0 321.0 L 543.0 321.0 L 542.0 322.0 L 544.0 323.0 L 554.0 323.0 L 553.0 321.0 L 551.0 321.0 L 550.0 320.0 L 550.0 310.0 L 551.0 309.0 L 563.0 309.0 L 564.0 310.0 L 564.0 317.0 L 563.0 318.0 L 563.0 322.0 L 561.0 324.0 L 558.0 325.0 L 558.0 326.0 L 565.0 326.0 L 565.0 314.0 L 566.0 313.0 L 566.0 301.0 L 565.0 301.0 L 565.0 303.0 L 562.0 306.0 L 551.0 306.0 L 550.0 305.0 L 535.0 305.0 L 532.0 303.0 L 532.0 300.0 Z M 77.0 298.0 L 75.0 298.0 L 75.0 301.0 L 72.0 304.0 L 69.0 304.0 L 68.0 305.0 L 62.0 305.0 L 61.0 306.0 L 54.0 306.0 L 53.0 307.0 L 47.0 307.0 L 46.0 308.0 L 37.0 308.0 L 35.0 306.0 L 35.0 304.0 L 33.0 303.0 L 33.0 307.0 L 34.0 308.0 L 34.0 314.0 L 35.0 315.0 L 35.0 319.0 L 36.0 319.0 L 37.0 314.0 L 40.0 312.0 L 46.0 312.0 L 47.0 311.0 L 53.0 311.0 L 55.0 315.0 L 55.0 322.0 L 56.0 323.0 L 56.0 329.0 L 55.0 330.0 L 52.0 330.0 L 51.0 331.0 L 43.0 331.0 L 42.0 332.0 L 38.0 329.0 L 38.0 327.0 L 37.0 326.0 L 36.0 327.0 L 36.0 330.0 L 37.0 331.0 L 37.0 337.0 L 38.0 338.0 L 38.0 342.0 L 40.0 341.0 L 40.0 338.0 L 42.0 336.0 L 44.0 336.0 L 45.0 335.0 L 52.0 335.0 L 53.0 334.0 L 59.0 334.0 L 60.0 333.0 L 67.0 333.0 L 68.0 332.0 L 77.0 332.0 L 80.0 335.0 L 80.0 337.0 L 82.0 336.0 L 81.0 335.0 L 81.0 328.0 L 80.0 327.0 L 80.0 321.0 L 78.0 321.0 L 78.0 324.0 L 75.0 327.0 L 73.0 328.0 L 67.0 328.0 L 66.0 329.0 L 60.0 329.0 L 58.0 325.0 L 58.0 319.0 L 57.0 318.0 L 57.0 311.0 L 58.0 310.0 L 62.0 310.0 L 63.0 309.0 L 69.0 309.0 L 70.0 308.0 L 73.0 308.0 L 76.0 310.0 L 77.0 313.0 L 79.0 313.0 L 78.0 312.0 L 78.0 305.0 L 77.0 304.0 Z M 41.0 272.0 L 39.0 276.0 L 39.0 285.0 L 41.0 289.0 L 45.0 293.0 L 49.0 295.0 L 53.0 295.0 L 54.0 296.0 L 61.0 296.0 L 62.0 295.0 L 65.0 295.0 L 69.0 293.0 L 73.0 289.0 L 75.0 285.0 L 75.0 277.0 L 74.0 276.0 L 74.0 274.0 L 68.0 268.0 L 66.0 267.0 L 64.0 267.0 L 63.0 266.0 L 50.0 266.0 L 44.0 269.0 Z M 40.0 278.0 L 41.0 276.0 L 46.0 271.0 L 48.0 271.0 L 52.0 269.0 L 61.0 269.0 L 62.0 270.0 L 65.0 270.0 L 69.0 273.0 L 70.0 273.0 L 72.0 275.0 L 74.0 279.0 L 74.0 282.0 L 73.0 283.0 L 73.0 285.0 L 68.0 290.0 L 66.0 291.0 L 64.0 291.0 L 63.0 292.0 L 52.0 292.0 L 51.0 291.0 L 48.0 291.0 L 42.0 287.0 L 40.0 283.0 Z M 563.0 265.0 L 562.0 265.0 L 562.0 267.0 L 560.0 269.0 L 530.0 284.0 L 532.0 284.0 L 536.0 286.0 L 539.0 286.0 L 543.0 288.0 L 546.0 288.0 L 550.0 290.0 L 557.0 291.0 L 558.0 292.0 L 563.0 293.0 L 565.0 295.0 L 565.0 296.0 L 566.0 296.0 L 566.0 289.0 L 565.0 287.0 L 564.0 287.0 L 564.0 289.0 L 562.0 291.0 L 561.0 290.0 L 557.0 290.0 L 556.0 289.0 L 553.0 289.0 L 552.0 288.0 L 549.0 288.0 L 548.0 287.0 L 541.0 286.0 L 537.0 284.0 L 559.0 273.0 L 562.0 273.0 L 564.0 277.0 L 564.0 267.0 Z M 560.0 247.0 L 559.0 247.0 L 559.0 250.0 L 556.0 253.0 L 553.0 253.0 L 552.0 254.0 L 548.0 254.0 L 547.0 255.0 L 543.0 255.0 L 542.0 256.0 L 538.0 256.0 L 537.0 257.0 L 532.0 257.0 L 530.0 258.0 L 528.0 257.0 L 526.0 253.0 L 525.0 253.0 L 525.0 255.0 L 526.0 256.0 L 526.0 261.0 L 527.0 262.0 L 527.0 266.0 L 528.0 267.0 L 529.0 266.0 L 528.0 264.0 L 530.0 261.0 L 532.0 261.0 L 533.0 260.0 L 537.0 260.0 L 538.0 259.0 L 542.0 259.0 L 543.0 258.0 L 547.0 258.0 L 548.0 257.0 L 553.0 257.0 L 554.0 256.0 L 558.0 256.0 L 561.0 259.0 L 561.0 260.0 L 562.0 260.0 L 562.0 257.0 L 561.0 256.0 L 561.0 252.0 L 560.0 251.0 Z M 46.0 227.0 L 45.0 228.0 L 45.0 233.0 L 44.0 234.0 L 44.0 238.0 L 45.0 238.0 L 47.0 234.0 L 54.0 234.0 L 55.0 235.0 L 60.0 235.0 L 61.0 236.0 L 65.0 236.0 L 66.0 237.0 L 70.0 237.0 L 71.0 238.0 L 69.0 240.0 L 67.0 240.0 L 56.0 246.0 L 54.0 246.0 L 45.0 251.0 L 43.0 251.0 L 41.0 253.0 L 41.0 257.0 L 40.0 259.0 L 41.0 259.0 L 43.0 256.0 L 50.0 256.0 L 51.0 257.0 L 56.0 257.0 L 57.0 258.0 L 62.0 258.0 L 63.0 259.0 L 68.0 259.0 L 69.0 260.0 L 72.0 260.0 L 74.0 262.0 L 74.0 264.0 L 75.0 265.0 L 75.0 263.0 L 76.0 262.0 L 76.0 257.0 L 77.0 256.0 L 76.0 254.0 L 73.0 258.0 L 68.0 258.0 L 67.0 257.0 L 62.0 257.0 L 61.0 256.0 L 56.0 256.0 L 55.0 255.0 L 50.0 255.0 L 49.0 253.0 L 76.0 239.0 L 78.0 239.0 L 80.0 238.0 L 80.0 237.0 L 77.0 237.0 L 76.0 236.0 L 71.0 236.0 L 70.0 235.0 L 65.0 235.0 L 64.0 234.0 L 59.0 234.0 L 58.0 233.0 L 53.0 233.0 L 52.0 232.0 L 49.0 232.0 L 47.0 230.0 L 47.0 228.0 Z M 550.0 211.0 L 549.0 212.0 L 549.0 214.0 L 546.0 217.0 L 544.0 217.0 L 543.0 218.0 L 540.0 218.0 L 539.0 219.0 L 537.0 219.0 L 533.0 221.0 L 530.0 221.0 L 529.0 222.0 L 527.0 222.0 L 526.0 223.0 L 523.0 223.0 L 522.0 224.0 L 520.0 224.0 L 517.0 221.0 L 516.0 221.0 L 517.0 223.0 L 517.0 226.0 L 518.0 227.0 L 518.0 229.0 L 519.0 231.0 L 520.0 231.0 L 520.0 228.0 L 522.0 226.0 L 526.0 224.0 L 529.0 224.0 L 533.0 222.0 L 536.0 222.0 L 537.0 221.0 L 539.0 221.0 L 543.0 219.0 L 545.0 220.0 L 545.0 221.0 L 541.0 225.0 L 541.0 226.0 L 534.0 234.0 L 534.0 235.0 L 531.0 238.0 L 531.0 239.0 L 527.0 243.0 L 527.0 244.0 L 524.0 247.0 L 524.0 248.0 L 526.0 248.0 L 530.0 246.0 L 533.0 246.0 L 537.0 244.0 L 540.0 244.0 L 541.0 243.0 L 543.0 243.0 L 547.0 241.0 L 554.0 240.0 L 555.0 239.0 L 558.0 242.0 L 559.0 242.0 L 559.0 240.0 L 558.0 239.0 L 557.0 234.0 L 556.0 232.0 L 555.0 232.0 L 555.0 236.0 L 553.0 238.0 L 551.0 238.0 L 550.0 239.0 L 548.0 239.0 L 544.0 241.0 L 541.0 241.0 L 540.0 242.0 L 538.0 242.0 L 534.0 244.0 L 532.0 244.0 L 531.0 243.0 L 535.0 239.0 L 535.0 238.0 L 540.0 233.0 L 540.0 232.0 L 552.0 218.0 L 551.0 216.0 L 551.0 214.0 L 550.0 213.0 Z M 55.0 195.0 L 54.0 196.0 L 56.0 198.0 L 55.0 200.0 L 52.0 203.0 L 52.0 205.0 L 51.0 206.0 L 51.0 215.0 L 53.0 219.0 L 58.0 224.0 L 62.0 226.0 L 64.0 226.0 L 65.0 227.0 L 70.0 227.0 L 71.0 228.0 L 73.0 228.0 L 74.0 227.0 L 77.0 227.0 L 81.0 225.0 L 84.0 222.0 L 87.0 216.0 L 87.0 205.0 L 86.0 204.0 L 83.0 204.0 L 82.0 203.0 L 80.0 203.0 L 79.0 202.0 L 77.0 202.0 L 75.0 201.0 L 73.0 199.0 L 73.0 196.0 L 72.0 197.0 L 72.0 199.0 L 71.0 200.0 L 71.0 202.0 L 70.0 203.0 L 70.0 205.0 L 69.0 207.0 L 70.0 207.0 L 72.0 204.0 L 75.0 204.0 L 76.0 205.0 L 78.0 205.0 L 79.0 206.0 L 84.0 207.0 L 86.0 210.0 L 86.0 214.0 L 84.0 218.0 L 80.0 222.0 L 76.0 224.0 L 67.0 224.0 L 57.0 219.0 L 55.0 217.0 L 55.0 216.0 L 52.0 212.0 L 52.0 207.0 L 54.0 203.0 L 57.0 200.0 L 59.0 200.0 L 60.0 199.0 L 65.0 199.0 L 64.0 197.0 L 61.0 197.0 L 60.0 196.0 Z M 537.0 167.0 L 535.0 168.0 L 536.0 169.0 L 536.0 173.0 L 534.0 175.0 L 516.0 184.0 L 514.0 184.0 L 512.0 185.0 L 510.0 187.0 L 506.0 189.0 L 506.0 190.0 L 504.0 192.0 L 503.0 194.0 L 503.0 201.0 L 506.0 207.0 L 510.0 211.0 L 512.0 212.0 L 515.0 212.0 L 516.0 213.0 L 518.0 212.0 L 522.0 212.0 L 529.0 208.0 L 531.0 208.0 L 547.0 200.0 L 550.0 201.0 L 552.0 203.0 L 552.0 204.0 L 554.0 203.0 L 548.0 191.0 L 547.0 192.0 L 547.0 196.0 L 545.0 198.0 L 544.0 198.0 L 540.0 201.0 L 538.0 201.0 L 520.0 210.0 L 513.0 210.0 L 511.0 209.0 L 508.0 206.0 L 506.0 202.0 L 506.0 197.0 L 507.0 195.0 L 512.0 190.0 L 526.0 183.0 L 528.0 183.0 L 538.0 178.0 L 542.0 182.0 L 543.0 182.0 L 543.0 180.0 L 539.0 173.0 L 539.0 171.0 Z M 505.0 133.0 L 502.0 133.0 L 501.0 132.0 L 494.0 132.0 L 493.0 133.0 L 491.0 133.0 L 487.0 135.0 L 485.0 137.0 L 484.0 137.0 L 479.0 143.0 L 479.0 145.0 L 478.0 146.0 L 478.0 149.0 L 477.0 150.0 L 477.0 152.0 L 478.0 153.0 L 478.0 156.0 L 479.0 158.0 L 485.0 164.0 L 487.0 165.0 L 490.0 165.0 L 491.0 166.0 L 493.0 166.0 L 494.0 165.0 L 487.0 163.0 L 482.0 158.0 L 481.0 156.0 L 481.0 154.0 L 480.0 153.0 L 481.0 151.0 L 481.0 147.0 L 483.0 145.0 L 483.0 144.0 L 489.0 138.0 L 490.0 138.0 L 492.0 136.0 L 494.0 135.0 L 496.0 135.0 L 497.0 134.0 L 502.0 134.0 L 506.0 136.0 L 510.0 140.0 L 510.0 142.0 L 511.0 143.0 L 511.0 146.0 L 507.0 153.0 L 508.0 154.0 L 516.0 147.0 L 516.0 146.0 L 515.0 146.0 L 513.0 144.0 L 510.0 137.0 Z M 82.0 132.0 L 79.0 136.0 L 78.0 139.0 L 74.0 144.0 L 75.0 145.0 L 76.0 145.0 L 78.0 143.0 L 80.0 144.0 L 82.0 148.0 L 82.0 150.0 L 83.0 151.0 L 83.0 153.0 L 84.0 154.0 L 84.0 156.0 L 85.0 157.0 L 85.0 159.0 L 86.0 160.0 L 86.0 162.0 L 87.0 164.0 L 85.0 165.0 L 81.0 162.0 L 75.0 159.0 L 71.0 155.0 L 72.0 150.0 L 70.0 151.0 L 70.0 152.0 L 66.0 157.0 L 63.0 163.0 L 64.0 164.0 L 68.0 160.0 L 69.0 161.0 L 71.0 161.0 L 73.0 163.0 L 76.0 164.0 L 81.0 168.0 L 89.0 172.0 L 94.0 176.0 L 97.0 177.0 L 100.0 180.0 L 100.0 183.0 L 99.0 184.0 L 99.0 186.0 L 100.0 186.0 L 102.0 184.0 L 103.0 181.0 L 107.0 176.0 L 108.0 174.0 L 108.0 172.0 L 107.0 172.0 L 104.0 175.0 L 101.0 175.0 L 97.0 172.0 L 96.0 172.0 L 94.0 170.0 L 91.0 169.0 L 89.0 167.0 L 89.0 164.0 L 90.0 163.0 L 96.0 163.0 L 97.0 162.0 L 105.0 162.0 L 106.0 161.0 L 110.0 161.0 L 112.0 163.0 L 111.0 165.0 L 111.0 167.0 L 112.0 167.0 L 115.0 163.0 L 116.0 160.0 L 118.0 158.0 L 119.0 155.0 L 121.0 153.0 L 119.0 152.0 L 116.0 155.0 L 114.0 156.0 L 110.0 156.0 L 109.0 157.0 L 102.0 157.0 L 101.0 158.0 L 95.0 158.0 L 94.0 159.0 L 88.0 159.0 L 86.0 157.0 L 85.0 150.0 L 84.0 149.0 L 84.0 147.0 L 83.0 146.0 L 83.0 143.0 L 82.0 142.0 L 82.0 139.0 L 81.0 138.0 L 83.0 134.0 L 83.0 132.0 Z M 487.0 112.0 L 486.0 113.0 L 488.0 116.0 L 488.0 118.0 L 480.0 126.0 L 479.0 126.0 L 468.0 137.0 L 466.0 138.0 L 462.0 135.0 L 461.0 136.0 L 470.0 146.0 L 471.0 146.0 L 469.0 142.0 L 470.0 139.0 L 473.0 136.0 L 474.0 136.0 L 488.0 122.0 L 490.0 121.0 L 493.0 121.0 L 495.0 123.0 L 496.0 122.0 Z M 105.0 113.0 L 101.0 117.0 L 99.0 121.0 L 99.0 130.0 L 101.0 134.0 L 103.0 136.0 L 103.0 137.0 L 109.0 142.0 L 113.0 144.0 L 115.0 144.0 L 116.0 145.0 L 123.0 145.0 L 127.0 143.0 L 131.0 139.0 L 133.0 135.0 L 133.0 127.0 L 132.0 126.0 L 132.0 124.0 L 131.0 122.0 L 123.0 114.0 L 119.0 112.0 L 116.0 112.0 L 115.0 111.0 L 110.0 111.0 L 109.0 112.0 L 107.0 112.0 Z M 105.0 115.0 L 107.0 114.0 L 115.0 114.0 L 119.0 116.0 L 121.0 118.0 L 122.0 118.0 L 128.0 124.0 L 131.0 130.0 L 131.0 135.0 L 129.0 139.0 L 127.0 141.0 L 125.0 142.0 L 117.0 142.0 L 116.0 141.0 L 114.0 141.0 L 112.0 139.0 L 111.0 139.0 L 103.0 131.0 L 101.0 127.0 L 101.0 120.0 L 102.0 118.0 Z M 142.0 80.0 L 141.0 80.0 L 136.0 85.0 L 135.0 85.0 L 134.0 87.0 L 139.0 86.0 L 154.0 103.0 L 153.0 105.0 L 152.0 104.0 L 149.0 104.0 L 145.0 102.0 L 138.0 101.0 L 137.0 100.0 L 135.0 100.0 L 134.0 99.0 L 131.0 99.0 L 130.0 98.0 L 128.0 98.0 L 127.0 97.0 L 124.0 97.0 L 123.0 96.0 L 122.0 96.0 L 118.0 100.0 L 118.0 101.0 L 120.0 100.0 L 122.0 100.0 L 130.0 109.0 L 130.0 110.0 L 136.0 116.0 L 136.0 117.0 L 140.0 121.0 L 141.0 123.0 L 140.0 125.0 L 140.0 127.0 L 141.0 127.0 L 144.0 124.0 L 145.0 124.0 L 148.0 121.0 L 148.0 120.0 L 146.0 121.0 L 143.0 121.0 L 136.0 114.0 L 136.0 113.0 L 127.0 103.0 L 128.0 101.0 L 129.0 102.0 L 132.0 102.0 L 133.0 103.0 L 136.0 103.0 L 137.0 104.0 L 140.0 104.0 L 141.0 105.0 L 144.0 105.0 L 145.0 106.0 L 148.0 106.0 L 152.0 108.0 L 155.0 108.0 L 156.0 109.0 L 159.0 109.0 L 160.0 110.0 L 162.0 110.0 L 160.0 108.0 L 160.0 107.0 L 155.0 102.0 L 155.0 101.0 L 150.0 96.0 L 150.0 95.0 L 141.0 85.0 Z M 429.0 67.0 L 429.0 68.0 L 431.0 70.0 L 431.0 72.0 L 430.0 74.0 L 428.0 76.0 L 428.0 77.0 L 426.0 79.0 L 426.0 80.0 L 424.0 82.0 L 424.0 83.0 L 422.0 85.0 L 422.0 86.0 L 420.0 88.0 L 418.0 92.0 L 414.0 96.0 L 412.0 96.0 L 411.0 95.0 L 410.0 95.0 L 410.0 96.0 L 412.0 98.0 L 413.0 98.0 L 415.0 100.0 L 416.0 100.0 L 420.0 103.0 L 421.0 102.0 L 418.0 99.0 L 418.0 98.0 L 420.0 94.0 L 426.0 86.0 L 430.0 89.0 L 431.0 89.0 L 433.0 91.0 L 434.0 91.0 L 436.0 93.0 L 437.0 93.0 L 438.0 94.0 L 438.0 96.0 L 436.0 98.0 L 436.0 99.0 L 434.0 101.0 L 432.0 105.0 L 431.0 106.0 L 426.0 106.0 L 426.0 107.0 L 430.0 110.0 L 431.0 110.0 L 433.0 112.0 L 434.0 112.0 L 436.0 114.0 L 437.0 114.0 L 443.0 120.0 L 445.0 120.0 L 443.0 117.0 L 444.0 114.0 L 459.0 97.0 L 460.0 98.0 L 460.0 107.0 L 459.0 108.0 L 459.0 117.0 L 458.0 118.0 L 458.0 127.0 L 457.0 128.0 L 457.0 132.0 L 458.0 132.0 L 460.0 130.0 L 460.0 129.0 L 468.0 121.0 L 468.0 120.0 L 479.0 108.0 L 481.0 108.0 L 482.0 109.0 L 484.0 108.0 L 482.0 107.0 L 477.0 102.0 L 475.0 102.0 L 477.0 104.0 L 477.0 107.0 L 475.0 109.0 L 475.0 110.0 L 468.0 117.0 L 468.0 118.0 L 462.0 124.0 L 461.0 123.0 L 461.0 118.0 L 462.0 117.0 L 462.0 110.0 L 463.0 109.0 L 463.0 102.0 L 464.0 101.0 L 464.0 94.0 L 465.0 92.0 L 460.0 87.0 L 459.0 88.0 L 461.0 90.0 L 460.0 93.0 L 448.0 106.0 L 448.0 107.0 L 441.0 114.0 L 439.0 114.0 L 437.0 113.0 L 434.0 110.0 L 434.0 107.0 L 436.0 105.0 L 436.0 104.0 L 438.0 102.0 L 438.0 101.0 L 440.0 99.0 L 440.0 98.0 L 442.0 96.0 L 442.0 95.0 L 444.0 93.0 L 444.0 92.0 L 446.0 90.0 L 448.0 86.0 L 450.0 84.0 L 454.0 84.0 L 455.0 85.0 L 455.0 84.0 L 453.0 82.0 L 452.0 82.0 L 450.0 80.0 L 449.0 80.0 L 445.0 77.0 L 444.0 78.0 L 447.0 81.0 L 447.0 82.0 L 444.0 86.0 L 444.0 87.0 L 442.0 89.0 L 442.0 90.0 L 440.0 92.0 L 438.0 92.0 L 427.0 84.0 L 430.0 80.0 L 430.0 79.0 L 432.0 77.0 L 432.0 76.0 L 435.0 73.0 L 437.0 73.0 L 439.0 74.0 L 438.0 72.0 L 437.0 72.0 L 432.0 68.0 Z M 170.0 61.0 L 167.0 65.0 L 164.0 65.0 L 160.0 67.0 L 155.0 72.0 L 154.0 74.0 L 154.0 77.0 L 153.0 78.0 L 153.0 83.0 L 154.0 84.0 L 154.0 87.0 L 156.0 91.0 L 161.0 97.0 L 162.0 97.0 L 166.0 100.0 L 173.0 101.0 L 174.0 100.0 L 177.0 100.0 L 181.0 97.0 L 182.0 97.0 L 186.0 93.0 L 188.0 89.0 L 186.0 87.0 L 185.0 84.0 L 183.0 82.0 L 181.0 78.0 L 183.0 74.0 L 173.0 79.0 L 173.0 80.0 L 175.0 80.0 L 177.0 79.0 L 180.0 82.0 L 181.0 85.0 L 184.0 89.0 L 184.0 92.0 L 183.0 94.0 L 177.0 98.0 L 170.0 98.0 L 169.0 97.0 L 167.0 97.0 L 160.0 90.0 L 160.0 89.0 L 158.0 87.0 L 158.0 85.0 L 156.0 81.0 L 156.0 74.0 L 161.0 68.0 L 163.0 67.0 L 170.0 67.0 L 175.0 71.0 L 176.0 70.0 Z M 423.0 62.0 L 421.0 62.0 L 420.0 63.0 L 416.0 59.0 L 410.0 56.0 L 404.0 56.0 L 403.0 57.0 L 401.0 57.0 L 397.0 59.0 L 392.0 64.0 L 389.0 70.0 L 389.0 72.0 L 388.0 73.0 L 388.0 80.0 L 389.0 81.0 L 389.0 83.0 L 390.0 85.0 L 395.0 90.0 L 397.0 91.0 L 400.0 91.0 L 401.0 92.0 L 406.0 92.0 L 407.0 91.0 L 409.0 91.0 L 410.0 89.0 L 408.0 90.0 L 400.0 90.0 L 398.0 89.0 L 393.0 84.0 L 392.0 82.0 L 392.0 72.0 L 395.0 66.0 L 397.0 64.0 L 397.0 63.0 L 400.0 60.0 L 404.0 58.0 L 410.0 58.0 L 411.0 59.0 L 413.0 59.0 L 416.0 62.0 L 417.0 64.0 L 417.0 66.0 L 418.0 67.0 L 418.0 70.0 L 417.0 71.0 L 418.0 73.0 L 420.0 70.0 L 420.0 68.0 Z M 368.0 41.0 L 368.0 42.0 L 369.0 42.0 L 371.0 44.0 L 371.0 46.0 L 370.0 47.0 L 370.0 49.0 L 369.0 50.0 L 369.0 52.0 L 368.0 53.0 L 368.0 55.0 L 367.0 56.0 L 367.0 58.0 L 366.0 59.0 L 366.0 61.0 L 365.0 62.0 L 365.0 64.0 L 364.0 65.0 L 363.0 70.0 L 360.0 73.0 L 357.0 73.0 L 356.0 74.0 L 358.0 74.0 L 364.0 77.0 L 366.0 77.0 L 367.0 78.0 L 369.0 78.0 L 370.0 79.0 L 372.0 79.0 L 373.0 80.0 L 375.0 80.0 L 376.0 81.0 L 378.0 81.0 L 380.0 82.0 L 382.0 78.0 L 384.0 76.0 L 384.0 74.0 L 383.0 74.0 L 379.0 78.0 L 373.0 78.0 L 372.0 77.0 L 370.0 77.0 L 366.0 75.0 L 365.0 74.0 L 365.0 72.0 L 366.0 71.0 L 366.0 69.0 L 367.0 68.0 L 368.0 63.0 L 370.0 60.0 L 379.0 63.0 L 380.0 64.0 L 380.0 69.0 L 382.0 68.0 L 382.0 66.0 L 383.0 65.0 L 383.0 63.0 L 384.0 62.0 L 384.0 60.0 L 385.0 58.0 L 384.0 58.0 L 381.0 61.0 L 378.0 61.0 L 377.0 60.0 L 372.0 59.0 L 370.0 57.0 L 371.0 56.0 L 371.0 54.0 L 373.0 51.0 L 373.0 49.0 L 375.0 45.0 L 377.0 45.0 L 380.0 47.0 L 385.0 48.0 L 388.0 51.0 L 388.0 55.0 L 389.0 55.0 L 390.0 53.0 L 391.0 48.0 L 389.0 48.0 L 388.0 47.0 L 386.0 47.0 L 385.0 46.0 L 383.0 46.0 L 382.0 45.0 L 380.0 45.0 L 379.0 44.0 L 377.0 44.0 L 376.0 43.0 L 374.0 43.0 L 373.0 42.0 Z M 221.0 37.0 L 212.0 37.0 L 211.0 38.0 L 209.0 38.0 L 208.0 39.0 L 206.0 39.0 L 205.0 40.0 L 203.0 40.0 L 202.0 41.0 L 200.0 41.0 L 199.0 42.0 L 197.0 42.0 L 195.0 43.0 L 196.0 44.0 L 200.0 44.0 L 202.0 46.0 L 204.0 50.0 L 204.0 52.0 L 205.0 53.0 L 205.0 55.0 L 206.0 56.0 L 206.0 58.0 L 207.0 59.0 L 207.0 61.0 L 208.0 62.0 L 208.0 64.0 L 209.0 65.0 L 209.0 67.0 L 210.0 68.0 L 210.0 70.0 L 211.0 71.0 L 211.0 73.0 L 213.0 77.0 L 213.0 80.0 L 210.0 83.0 L 209.0 83.0 L 209.0 84.0 L 212.0 84.0 L 213.0 83.0 L 215.0 83.0 L 216.0 82.0 L 218.0 82.0 L 219.0 81.0 L 224.0 80.0 L 224.0 78.0 L 222.0 78.0 L 221.0 79.0 L 217.0 76.0 L 216.0 74.0 L 216.0 72.0 L 213.0 66.0 L 213.0 64.0 L 215.0 62.0 L 217.0 62.0 L 223.0 59.0 L 228.0 54.0 L 228.0 51.0 L 229.0 50.0 L 229.0 47.0 L 228.0 46.0 L 228.0 44.0 L 227.0 42.0 L 223.0 38.0 Z M 208.0 41.0 L 210.0 41.0 L 211.0 40.0 L 218.0 40.0 L 220.0 41.0 L 223.0 44.0 L 224.0 46.0 L 224.0 53.0 L 221.0 57.0 L 215.0 60.0 L 212.0 60.0 L 210.0 57.0 L 210.0 55.0 L 209.0 54.0 L 209.0 52.0 L 208.0 51.0 L 208.0 49.0 L 207.0 48.0 L 207.0 46.0 L 206.0 45.0 L 206.0 43.0 Z M 337.0 34.0 L 337.0 36.0 L 336.0 37.0 L 336.0 40.0 L 335.0 42.0 L 337.0 42.0 L 338.0 39.0 L 340.0 37.0 L 346.0 37.0 L 348.0 39.0 L 348.0 40.0 L 347.0 41.0 L 347.0 44.0 L 346.0 45.0 L 346.0 49.0 L 345.0 50.0 L 345.0 54.0 L 344.0 55.0 L 344.0 58.0 L 343.0 59.0 L 343.0 63.0 L 342.0 64.0 L 342.0 66.0 L 340.0 68.0 L 338.0 69.0 L 337.0 68.0 L 336.0 69.0 L 337.0 70.0 L 341.0 70.0 L 342.0 71.0 L 349.0 72.0 L 349.0 71.0 L 348.0 71.0 L 345.0 68.0 L 345.0 65.0 L 346.0 64.0 L 346.0 61.0 L 347.0 60.0 L 347.0 56.0 L 348.0 55.0 L 348.0 52.0 L 349.0 51.0 L 350.0 42.0 L 352.0 39.0 L 355.0 39.0 L 357.0 40.0 L 360.0 43.0 L 360.0 47.0 L 361.0 48.0 L 361.0 46.0 L 362.0 45.0 L 362.0 41.0 L 363.0 40.0 L 362.0 39.0 L 360.0 39.0 L 359.0 38.0 L 356.0 38.0 L 355.0 37.0 L 351.0 37.0 L 350.0 36.0 L 347.0 36.0 L 346.0 35.0 Z M 245.0 34.0 L 241.0 36.0 L 236.0 42.0 L 236.0 44.0 L 235.0 45.0 L 235.0 55.0 L 236.0 56.0 L 236.0 59.0 L 238.0 63.0 L 244.0 69.0 L 246.0 69.0 L 247.0 70.0 L 255.0 70.0 L 259.0 68.0 L 263.0 64.0 L 264.0 62.0 L 264.0 60.0 L 265.0 59.0 L 265.0 48.0 L 264.0 47.0 L 263.0 42.0 L 259.0 37.0 L 258.0 37.0 L 254.0 34.0 Z M 246.0 35.0 L 251.0 35.0 L 255.0 37.0 L 259.0 42.0 L 260.0 44.0 L 260.0 46.0 L 261.0 47.0 L 261.0 50.0 L 262.0 51.0 L 262.0 59.0 L 261.0 60.0 L 261.0 62.0 L 260.0 64.0 L 257.0 67.0 L 253.0 69.0 L 250.0 69.0 L 246.0 67.0 L 242.0 63.0 L 240.0 59.0 L 240.0 57.0 L 239.0 56.0 L 239.0 53.0 L 238.0 52.0 L 238.0 46.0 L 239.0 45.0 L 239.0 42.0 L 240.0 40.0 L 244.0 36.0 Z M 268.0 31.0 L 268.0 32.0 L 269.0 33.0 L 271.0 33.0 L 273.0 36.0 L 273.0 50.0 L 274.0 51.0 L 274.0 63.0 L 272.0 65.0 L 270.0 65.0 L 270.0 67.0 L 272.0 66.0 L 291.0 66.0 L 292.0 65.0 L 295.0 65.0 L 295.0 60.0 L 296.0 59.0 L 296.0 56.0 L 295.0 56.0 L 294.0 59.0 L 290.0 63.0 L 288.0 64.0 L 279.0 64.0 L 277.0 62.0 L 277.0 47.0 L 276.0 46.0 L 276.0 34.0 L 278.0 32.0 L 280.0 32.0 L 281.0 31.0 Z M 300.0 30.0 L 300.0 31.0 L 302.0 31.0 L 305.0 34.0 L 313.0 50.0 L 313.0 53.0 L 312.0 54.0 L 312.0 62.0 L 309.0 65.0 L 306.0 65.0 L 306.0 66.0 L 313.0 66.0 L 314.0 67.0 L 320.0 67.0 L 320.0 66.0 L 317.0 65.0 L 315.0 63.0 L 315.0 57.0 L 316.0 56.0 L 316.0 51.0 L 319.0 47.0 L 319.0 46.0 L 325.0 39.0 L 325.0 38.0 L 329.0 34.0 L 331.0 34.0 L 331.0 33.0 L 330.0 32.0 L 322.0 32.0 L 322.0 33.0 L 324.0 34.0 L 324.0 36.0 L 316.0 48.0 L 314.0 46.0 L 309.0 36.0 L 309.0 33.0 L 310.0 32.0 L 313.0 32.0 L 313.0 31.0 L 308.0 31.0 L 307.0 30.0 Z"/>
</g>
</svg>