<?xml version="1.0" standalone="no"?><!DOCTYPE svg PUBLIC "-//W3C//DTD SVG 1.1//EN" "http://www.w3.org/Graphics/SVG/1.1/DTD/svg11.dtd"><svg t="1783741270796" class="icon" viewBox="0 0 2898 1024" version="1.1" xmlns="http://www.w3.org/2000/svg" p-id="2768" xmlns:xlink="http://www.w3.org/1999/xlink" width="566.015625" height="200"><path d="M1260.196226 425.201509h119.634114V305.548075H1260.196226zM1260.196226 880.968453h119.634114V475.676981H1260.196226zM2114.56 615.501283c4.057358-47.828528 40.225811-90.556377 104.042264-90.556377 63.787472 0 99.955925 38.65117 104.013283 90.556377h-208.045887z m107.181887-172.350792c-125.604226 0-226.82566 92.449811-226.825661 223.821283 0 117.383245 96.594113 220.990792 226.825661 220.990792 124.464302 0 178.446491-73.187019 199.245283-134.337208l-51.393208-16.90566c-31.628075 48.64966-73.071094 69.921811-132.434113 66.617962-65.719547-3.632302-124.329057-44.28317-125.710491-119.943245h320.946717c14.867321-146.219472-94.72-240.243925-210.654188-240.243924zM1800.163019 665.551698v95.058113c-11.109434 15.843019-45.867472 36.970264-99.047849 36.970264-81.504604 0-118.243019-64.338113-118.243019-132.028377 0-67.680604 36.738415-132.038038 118.243019-132.038038 53.180377 0 87.938415 21.127245 99.047849 36.979925v95.058113z m0-196.308528s-41.095245-26.092679-107.394415-26.092679c-147.861736 0-228.323019 97.811321-228.323019 223.386566 0 131.043019 78.712755 221.415849 202.51049 221.415849 55.933585 0 109.384453-22.576302 133.216604-56.82234v49.480453h119.189736V305.557736h-119.199396v163.695094z" fill="#0091D7" p-id="2769"></path><path d="M2781.145358 790.730868s-24.440755 25.6-79.157132 25.6c-66.627623 0-89.880151-44.53434-89.909132-73.341585 0.028981-28.797585 23.281509-71.081057 89.909132-71.081057 52.977509 0 79.157132 18.847396 79.157132 18.847397v99.975245zM2704.326038 443.150491C2597.037887 443.150491 2534.506264 497.335547 2508.123774 565.933887L2559.584604 582.791245c3.902792-7.090717 37.598189-75.379925 125.874717-72.665358 29.126038 0.888755 62.676528 10.317283 81.784754 41.104905 9.554113 15.36 13.910943 37.656151 13.910944 65.27517-18.451321-8.578415-54.590792-17.214792-88.237887-17.214792-134.182642 0-191.536302 72.626717-191.536302 156.971472 0 90.498415 96.932226 138.471849 178.823245 131.574339 45.954415-3.864151 77.263698-18.654189 100.950944-41.713509v34.497207h110.872151V602.595019c0-75.148075-59.237434-159.444528-187.701132-159.444528z" fill="#0091D7" p-id="2770"></path><path d="M44.205887 595.407698C44.205887 320.483019 267.080453 97.608453 542.014792 97.608453c170.602264 0 321.110943 85.880755 410.817208 216.711245C883.982491 131.303849 707.390792 1.03366 500.291623 1.03366 233.307774 1.03366 16.867019 217.464755 16.867019 484.458264c0 59.990943 11.01283 117.412226 30.99049 170.418717A503.054491 503.054491 0 0 1 44.215547 595.407698" fill="#0091D7" p-id="2771"></path><path d="M956.908679 328.520453l5.052378 33.308981c3.767547 24.740226 4.124981 49.992453 4.124981 75.78566 0 115.325585-39.027925 221.483472-104.457661 306.214642L788.914717 328.530113H669.280604c-2.588981 48.784906-20.190189 223.058113-98.980227 366.244227-77.601811 140.993208-185.005887 178.919849-246.851622 195.207245 71.467472 11.51517 328.887547-29.560755 383.623245-310.310642l41.327094 271.379321a499.074415 499.074415 0 0 1-283.821886 88.083321C254.45434 939.133585 74.626415 809.868075 0 626.552755c51.103396 225.347623 252.493283 393.641057 493.297509 393.641056 257.255849 0 469.51366-192.00966 501.634416-440.513207l45.625962 301.287849h132.665962L1076.562113 328.520453H956.908679z" fill="#0091D7" p-id="2772"></path></svg>