<?xml version="1.0" standalone="no"?><!DOCTYPE svg PUBLIC "-//W3C//DTD SVG 1.1//EN" "http://www.w3.org/Graphics/SVG/1.1/DTD/svg11.dtd"><svg t="1783740868910" class="icon" viewBox="0 0 6142 1024" version="1.1" xmlns="http://www.w3.org/2000/svg" p-id="1757" xmlns:xlink="http://www.w3.org/1999/xlink" width="1199.609375" height="200"><path d="M480.196993 813.713473c13.34762-21.393041-10.399679-93.105788-10.399679-93.105788-95.634057-83.156489-72.818225 62.06029-72.818225 62.06029C464.003792 888.394633 480.196993 813.713473 480.196993 813.713473zM865.118186 751.653184c0 0-107.27228 3.367613-83.22814 72.408789 0 0 161.512339 37.647657 176.85596-31.035263C958.746006 793.02671 969.88267 728.499567 865.118186 751.653184zM438.588041 430.982764c-88.735057-93.883717 31.209273-124.130815 31.209273-124.130815 45.897796-127.088992-62.418546-113.782316-62.418546-113.782316-103.505467-18.49628-41.608952 51.732262-41.608952 51.732262-17.810474 70.883639-72.818225 93.095552-72.818225 93.095552-143.548326-30.769129-31.209273-134.479315-31.209273-134.479315C256.296816 132.923457 365.75958 131.019579 365.75958 131.019579c36.931144-4.606157 31.209273-41.383762 31.209273-41.383762C378.902481 9.39656 261.732081 48.26229 261.732081 48.26229c-62.183121 41.332583-124.837093 196.539605-124.837093 196.539605-41.209752 77.925942 62.418546 124.120579 62.418546 124.120579 36.757133 62.531141-62.418546 165.504342-62.418546 165.504342 5.37385 171.574233 104.027499 134.469079 104.027499 134.469079 9.662694 29.86837 135.247008 10.3485 135.247008 10.3485-2.866053-24.484284 93.62782-82.747053 93.62782-82.747053C487.85345 478.375002 438.588041 430.982764 438.588041 430.982764zM344.960221 606.835605c0 0-154.78735 2.651099-124.837093-62.06029 0 0 35.989441-88.069723 52.018867-82.757289 0 0 71.374963-82.869884 124.837093 20.686763C396.979089 482.70479 418.474488 571.644565 344.960221 606.835605zM95.286036 865.435499c-21.290682 133.281714 72.818225 82.747053 72.818225 82.747053-5.732107-63.380721 41.608952-93.095552 41.608952-93.095552L209.713214 720.607685C123.813502 692.20305 95.286036 865.435499 95.286036 865.435499zM272.13176 761.991447c-31.751776 307.834595 72.818225 144.807343 72.818225 144.807343C363.374614 645.76275 272.13176 761.991447 272.13176 761.991447zM1083.583098 275.826922c43.246697-77.833819-52.018867-144.807343-52.018867-144.807343l-62.418546-10.3485c-69.890757-37.207513-197.665554-10.3485-197.665554-10.3485-74.916586 23.64494-208.065233 10.3485-208.065233 10.3485-95.2758 114.990152-10.399679 227.564631-10.399679 227.564631l0 217.216132C536.975556 764.499244 459.387399 865.435499 459.387399 865.435499c8.649339 125.195349 83.22814 51.722026 83.22814 51.722026 52.438539-29.571528 72.828461-268.938158 72.828461-268.938158l52.018867 20.686763 0 124.130815c27.176327 50.01263 78.959768 29.110913 83.22814 20.686763s0-31.035263 0-31.035263c-33.061972-13.869651-10.409915-113.782316-10.409915-113.782316-1.627509-53.400714 218.464912-31.025027 218.464912-31.025027 46.511951-114.130336-114.437414-82.747053-114.437414-82.747053-35.047737-3.828228-20.809594-72.408789-20.809594-72.408789 74.844935-38.599596 163.262679-3.510915 166.456281 20.686763 3.193602 24.187443 0 341.346947 0 341.346947 29.64318 197.112815 104.037735 72.408789 104.037735 72.408789 17.278207-51.568487-31.209273-206.877868-31.209273-206.877868C1032.976786 593.948601 1083.583098 275.826922 1083.583098 275.826922zM761.080452 575.800342c-105.12274-18.89548-135.236772 10.3485-135.236772 10.3485-10.850059-155.299145 135.236772-93.095552 135.236772-93.095552L761.080452 575.800342zM989.955279 399.957737l-93.62782-10.3485 10.399679-51.722026c37.002795-23.051257 31.209273-103.433816 31.209273-103.433816-103.87396-60.422545-93.62782 82.747053-93.62782 82.747053-4.278608 115.952327-83.22814 93.095552-83.22814 93.095552l-114.437414 0c-101.847251-71.108829-20.809594-196.529369-20.809594-196.529369l104.037735-20.686763c4.851819-39.612951 156.046366-20.686763 156.046366-20.686763 94.415984 5.762814 104.037735 72.408789 104.037735 72.408789L989.955279 399.957737zM1822.216211 699.931158c0 0-200.470192 122.196229-249.674185 175.852841 0 0-150.938649 43.523066-197.665554 51.722026 0 0-131.736092 136.618619 124.837093 72.398553 0 0 138.747687-58.7848 197.665554-124.120579 0 0 174.08203-131.705385 239.274506-186.191105C1936.653625 689.582658 1948.13831 574.684629 1822.216211 699.931158zM2165.528452 699.931158c4.063654-152.023655-187.255639-227.564631-187.255639-227.564631-16.57193-0.614154-145.646687-10.3485-145.646687-10.3485-97.568643-10.942182-62.418546 72.408789-62.418546 72.408789-274.834039 227.226847-426.530145 227.564631-426.530145 227.564631-130.69203 80.45421 20.809594 93.095552 20.809594 93.095552 130.589671 8.813114 488.958928-299.973421 488.958928-299.973421 35.518589-18.486044 83.22814 0 83.22814 0-1.494442 44.004154 20.809594 62.06029 20.809594 62.06029 205.403898-34.085562 93.62782 186.191105 93.62782 186.191105-64.55785 116.157046-218.464912 103.433816-218.464912 103.433816-94.078199-58.754092-83.22814 0-83.22814 0 34.546178 236.633643 291.293374 41.373526 291.293374 41.373526C2206.205937 822.874608 2165.528452 699.931158 2165.528452 699.931158zM1832.626126 275.826922c117.5696-25.855895 31.209273-72.408789 31.209273-72.408789-38.620068-25.855895-270.483779 0-270.483779 0-59.245416 46.552894 0 72.408789 0 72.408789L1832.626126 275.826922zM698.672141 244.801895c-39.479884 41.250696 10.399679 113.77208 10.399679 113.77208 36.736662 41.393998 62.418546 10.3485 62.418546 10.3485l0-72.398553C748.500525 219.068831 698.672141 244.801895 698.672141 244.801895zM1333.26752 658.557631c271.896334-13.286204 384.910957-206.877868 384.910957-206.877868l260.0841-10.3485c87.762646-32.304515 83.22814-82.757289 83.22814-82.757289 22.375687-29.561293 0-134.469079 0-134.469079-8.915473-140.712981-72.818225-165.504342-72.818225-165.504342-50.452774-10.870531-72.818225-20.686763-72.818225-20.686763-41.148337-15.998719-156.056602 0-156.056602 0-60.30995-39.326346-197.665554 0-197.665554 0-113.260285 38.405114-20.809594 93.105788-20.809594 93.105788 425.209714-93.914425 426.530145 51.722026 426.530145 51.722026 42.161691 167.664118-41.608952 165.504342-41.608952 165.504342-112.87132-4.933706-93.62782 20.686763-93.62782 20.686763-38.333463 4.094362-52.018867-10.3485-52.018867-10.3485-74.701632-25.671649-145.646687 20.686763-145.646687 20.686763l-72.828461 0c-38.947617-4.984886-52.018867-62.06029-52.018867-62.06029L1510.103008 151.696106c-54.424305-86.718584-93.62782 10.3485-93.62782 10.3485l0 217.226368c50.841738 120.476597 187.255639 72.408789 187.255639 72.408789-24.71971 63.524024-176.85596 113.77208-176.85596 113.77208-41.219988 6.325789-104.037735 0-104.037735 0C1244.092319 622.302057 1333.26752 658.557631 1333.26752 658.557631z" fill="#C7080C" p-id="1758"></path><path d="M2276.690376 1013.354557 2276.690376 280.648033l143.947527 0 299.881297 489.306948L2720.5192 280.648033l137.447727 0L2857.966927 1013.354557l-148.441089 0L2414.138103 535.542529 2414.138103 1013.354557 2276.690376 1013.354557z" p-id="1759"></path><path d="M2948.319257 1013.354557 2948.319257 427.185243l434.626746 0 0 99.165444L3066.677023 526.350687l0 129.944809 294.282258 0 0 98.756008L3066.677023 755.051504l0 159.536809 327.46706 0L3394.144083 1013.354557 2948.319257 1013.354557z" p-id="1760"></path><path d="M3585.50432 1013.354557 3585.50432 526.350687l-173.928491 0 0-99.165444 465.815547 0 0 99.165444L3703.862085 526.350687 3703.862085 1013.354557 3585.50432 1013.354557z" p-id="1761"></path><path d="M3927.711083 1013.354557 3927.711083 280.648033l543.280873 0 0 123.946569-395.341344 0 0 162.43357 367.85794 0 0 123.455246-367.85794 0 0 199.415894 409.333826 0L4484.984438 1013.354557 3927.711083 1013.354557z" p-id="1762"></path><path d="M5072.955271 1013.354557l-128.747208 0-51.179523-133.148647-234.310093 0L4610.333326 1013.354557l-125.553606 0 228.311852-586.169314 125.154406 0L5072.955271 1013.354557zM4855.032861 781.449902l-80.771523-217.512973-79.164486 217.512973L4855.032861 781.449902z" p-id="1763"></path><path d="M5064.797255 822.628946l115.153927-11.19808c6.929707 38.650776 20.99384 67.045175 42.182163 85.162726 21.188323 18.127787 49.777204 27.186563 85.766645 27.186563 38.118509 0 66.830221-8.055657 86.165845-24.187443 19.325388-16.12155 28.988082-34.986322 28.988082-56.573845 0-13.859415-4.063654-25.651177-12.190962-35.385522-8.137544-9.724109-22.334744-18.189203-42.581363-25.385043-13.859415-4.800639-45.447416-13.327148-94.764005-25.589762-63.442137-15.722349-107.958086-35.047737-133.547848-57.976164-35.989441-32.2431-53.973925-71.569445-53.973925-117.948329 0-29.847898 8.454857-57.781682 25.385043-83.770643 16.91995-25.988962 41.312111-45.785201 73.166246-59.378483 31.843899-13.593281 70.300193-20.389922 115.358645-20.389922 73.575682 0 128.951926 16.131786 166.128732 48.385121 37.187041 32.253335 56.706912 75.30555 58.580082 129.146409l-118.357765 5.19984c-5.066773-30.114031-15.937303-51.783441-32.59112-64.977522-16.664053-13.194081-41.649896-19.79624-74.967765-19.79624-34.382404 0-61.313069 7.062774-80.771523 21.188323-12.538983 9.069011-18.793121 21.188323-18.793121 36.388641 0 13.859415 5.854937 25.733064 17.59552 35.59024 14.923949 12.538983 51.179523 25.589762 108.756487 39.183043s100.158327 27.657414 127.74409 42.182163c27.585763 14.534985 49.183522 34.382404 64.772804 59.572965s23.389042 56.317947 23.389042 93.361686c0 33.584003-9.335145 65.038938-27.984963 94.364805-18.660054 29.325867-45.048216 51.118108-79.164486 65.376723-34.126506 14.258615-76.636218 21.393041-127.549607 21.393041-74.107949 0-131.019579-17.124668-170.734889-51.384241C5096.241954 938.120658 5072.525363 888.200151 5064.797255 822.628946z" p-id="1764"></path><path d="M5600.022471 1013.354557 5600.022471 427.185243l434.626746 0 0 99.165444-316.268981 0 0 129.944809 294.282258 0 0 98.756008-294.282258 0 0 159.536809 327.46706 0L6045.847296 1013.354557 5600.022471 1013.354557z" p-id="1765"></path></svg>