<svg xmlns="http://www.w3.org/2000/svg" width="626" height="626" viewBox="0 0 626 626" role="img" aria-label="shenzhen_university transparent vector logo">
<title>Transparent vector logo</title>
<g fill-rule="evenodd" clip-rule="evenodd">
<path fill="#8C0B42" d="M 326.0 477.0 L 322.0 479.0 L 318.0 483.0 L 317.0 485.0 L 317.0 492.0 L 318.0 494.0 L 322.0 498.0 L 318.0 502.0 L 317.0 504.0 L 317.0 506.0 L 316.0 507.0 L 317.0 508.0 L 317.0 511.0 L 318.0 513.0 L 321.0 516.0 L 323.0 517.0 L 325.0 517.0 L 326.0 518.0 L 333.0 518.0 L 334.0 517.0 L 337.0 517.0 L 341.0 515.0 L 345.0 511.0 L 347.0 505.0 L 346.0 504.0 L 346.0 501.0 L 345.0 499.0 L 341.0 495.0 L 339.0 494.0 L 339.0 493.0 L 342.0 489.0 L 342.0 482.0 L 338.0 478.0 L 336.0 477.0 Z M 323.0 498.0 L 332.0 500.0 L 336.0 502.0 L 340.0 506.0 L 340.0 511.0 L 339.0 513.0 L 335.0 517.0 L 333.0 517.0 L 332.0 518.0 L 328.0 518.0 L 324.0 516.0 L 321.0 513.0 L 320.0 511.0 L 320.0 502.0 Z M 326.0 478.0 L 328.0 477.0 L 334.0 477.0 L 336.0 478.0 L 339.0 481.0 L 339.0 483.0 L 340.0 484.0 L 340.0 491.0 L 338.0 494.0 L 336.0 494.0 L 335.0 493.0 L 332.0 493.0 L 326.0 490.0 L 324.0 488.0 L 323.0 486.0 L 323.0 482.0 Z M 298.0 479.0 L 294.0 477.0 L 292.0 477.0 L 291.0 476.0 L 284.0 476.0 L 276.0 480.0 L 274.0 484.0 L 274.0 486.0 L 273.0 487.0 L 273.0 489.0 L 274.0 490.0 L 274.0 493.0 L 275.0 495.0 L 278.0 498.0 L 282.0 500.0 L 292.0 500.0 L 293.0 499.0 L 294.0 500.0 L 292.0 505.0 L 287.0 511.0 L 286.0 511.0 L 281.0 515.0 L 279.0 516.0 L 277.0 516.0 L 281.0 516.0 L 282.0 515.0 L 285.0 515.0 L 286.0 514.0 L 288.0 514.0 L 292.0 512.0 L 294.0 510.0 L 295.0 510.0 L 300.0 505.0 L 300.0 504.0 L 302.0 502.0 L 302.0 500.0 L 303.0 499.0 L 303.0 496.0 L 304.0 495.0 L 304.0 490.0 L 303.0 489.0 L 303.0 486.0 L 302.0 484.0 Z M 288.0 476.0 L 290.0 477.0 L 292.0 477.0 L 296.0 481.0 L 296.0 485.0 L 297.0 486.0 L 297.0 490.0 L 296.0 491.0 L 296.0 496.0 L 293.0 499.0 L 291.0 500.0 L 286.0 500.0 L 282.0 496.0 L 281.0 494.0 L 281.0 485.0 L 282.0 484.0 L 282.0 482.0 L 283.0 480.0 L 286.0 477.0 Z M 372.0 469.0 L 367.0 469.0 L 366.0 470.0 L 364.0 470.0 L 362.0 471.0 L 357.0 476.0 L 357.0 478.0 L 356.0 479.0 L 356.0 481.0 L 358.0 477.0 L 362.0 474.0 L 369.0 474.0 L 372.0 477.0 L 373.0 479.0 L 373.0 485.0 L 371.0 488.0 L 367.0 490.0 L 369.0 489.0 L 374.0 489.0 L 376.0 490.0 L 381.0 495.0 L 381.0 497.0 L 382.0 498.0 L 382.0 503.0 L 381.0 505.0 L 377.0 509.0 L 375.0 510.0 L 373.0 510.0 L 371.0 509.0 L 368.0 505.0 L 368.0 503.0 L 366.0 501.0 L 362.0 501.0 L 360.0 504.0 L 361.0 507.0 L 364.0 510.0 L 367.0 510.0 L 368.0 511.0 L 370.0 510.0 L 376.0 510.0 L 380.0 508.0 L 385.0 504.0 L 388.0 498.0 L 388.0 492.0 L 387.0 491.0 L 387.0 489.0 L 383.0 485.0 L 380.0 484.0 L 378.0 482.0 L 379.0 481.0 L 379.0 475.0 L 378.0 473.0 L 375.0 470.0 L 373.0 470.0 Z M 240.0 469.0 L 242.0 470.0 L 244.0 470.0 L 245.0 471.0 L 247.0 471.0 L 249.0 473.0 L 249.0 474.0 L 248.0 475.0 L 248.0 477.0 L 247.0 478.0 L 247.0 480.0 L 246.0 481.0 L 246.0 483.0 L 245.0 484.0 L 245.0 486.0 L 244.0 487.0 L 244.0 489.0 L 243.0 490.0 L 243.0 492.0 L 242.0 493.0 L 242.0 495.0 L 241.0 496.0 L 240.0 501.0 L 237.0 504.0 L 233.0 504.0 L 232.0 503.0 L 230.0 503.0 L 230.0 504.0 L 232.0 504.0 L 233.0 505.0 L 235.0 505.0 L 236.0 506.0 L 238.0 506.0 L 239.0 507.0 L 241.0 507.0 L 242.0 508.0 L 244.0 508.0 L 245.0 509.0 L 247.0 509.0 L 251.0 511.0 L 254.0 511.0 L 253.0 510.0 L 251.0 510.0 L 247.0 507.0 L 247.0 503.0 L 248.0 502.0 L 248.0 500.0 L 249.0 499.0 L 249.0 497.0 L 250.0 496.0 L 250.0 494.0 L 251.0 493.0 L 251.0 491.0 L 252.0 490.0 L 252.0 488.0 L 253.0 487.0 L 253.0 485.0 L 254.0 484.0 L 254.0 482.0 L 255.0 481.0 L 255.0 479.0 L 256.0 478.0 L 256.0 476.0 L 257.0 475.0 L 258.0 470.0 L 253.0 470.0 L 252.0 471.0 L 251.0 470.0 L 244.0 470.0 L 243.0 469.0 Z M 417.0 465.0 L 414.0 469.0 L 414.0 471.0 L 415.0 473.0 L 417.0 475.0 L 421.0 475.0 L 423.0 474.0 L 425.0 471.0 L 425.0 469.0 L 424.0 467.0 L 422.0 465.0 Z M 201.0 465.0 L 198.0 468.0 L 198.0 472.0 L 201.0 475.0 L 205.0 475.0 L 207.0 474.0 L 208.0 472.0 L 208.0 467.0 L 206.0 465.0 Z M 160.0 394.0 L 158.0 393.0 L 156.0 393.0 L 155.0 392.0 L 150.0 392.0 L 149.0 393.0 L 147.0 393.0 L 145.0 394.0 L 141.0 398.0 L 140.0 400.0 L 140.0 407.0 L 141.0 408.0 L 141.0 411.0 L 142.0 412.0 L 142.0 415.0 L 143.0 416.0 L 143.0 419.0 L 144.0 420.0 L 144.0 423.0 L 141.0 427.0 L 139.0 427.0 L 137.0 428.0 L 133.0 426.0 L 131.0 424.0 L 129.0 420.0 L 129.0 413.0 L 131.0 409.0 L 135.0 404.0 L 134.0 404.0 L 125.0 412.0 L 124.0 412.0 L 124.0 413.0 L 126.0 413.0 L 128.0 416.0 L 128.0 419.0 L 129.0 420.0 L 129.0 422.0 L 133.0 427.0 L 139.0 430.0 L 144.0 430.0 L 145.0 429.0 L 147.0 429.0 L 151.0 425.0 L 152.0 423.0 L 152.0 416.0 L 151.0 415.0 L 151.0 412.0 L 150.0 411.0 L 150.0 408.0 L 149.0 407.0 L 149.0 400.0 L 150.0 398.0 L 154.0 395.0 L 159.0 395.0 L 161.0 396.0 L 165.0 400.0 L 166.0 402.0 L 166.0 404.0 L 167.0 405.0 L 167.0 408.0 L 166.0 409.0 L 166.0 411.0 L 165.0 413.0 L 163.0 415.0 L 163.0 416.0 L 158.0 421.0 L 161.0 420.0 L 172.0 412.0 L 171.0 412.0 L 168.0 409.0 L 168.0 405.0 L 167.0 404.0 L 167.0 402.0 L 165.0 400.0 L 165.0 399.0 Z M 467.0 387.0 L 457.0 403.0 L 458.0 403.0 L 461.0 400.0 L 462.0 400.0 L 466.0 402.0 L 468.0 404.0 L 471.0 405.0 L 477.0 410.0 L 485.0 426.0 L 485.0 428.0 L 486.0 429.0 L 486.0 433.0 L 489.0 429.0 L 492.0 423.0 L 490.0 424.0 L 487.0 424.0 L 482.0 419.0 L 480.0 414.0 L 477.0 410.0 L 478.0 409.0 L 491.0 409.0 L 492.0 410.0 L 495.0 410.0 L 498.0 413.0 L 497.0 415.0 L 499.0 413.0 L 500.0 410.0 L 502.0 408.0 L 505.0 402.0 L 507.0 400.0 L 506.0 400.0 L 504.0 402.0 L 484.0 402.0 L 483.0 401.0 L 479.0 401.0 L 475.0 398.0 L 469.0 395.0 L 466.0 392.0 Z M 256.0 351.0 L 256.0 354.0 L 282.0 354.0 L 284.0 353.0 L 284.0 351.0 L 282.0 351.0 L 281.0 350.0 L 261.0 350.0 L 260.0 351.0 Z M 482.0 349.0 L 482.0 351.0 L 481.0 352.0 L 481.0 355.0 L 480.0 356.0 L 479.0 361.0 L 476.0 367.0 L 477.0 367.0 L 477.0 366.0 L 480.0 363.0 L 482.0 363.0 L 483.0 364.0 L 486.0 364.0 L 489.0 366.0 L 491.0 366.0 L 492.0 367.0 L 494.0 367.0 L 495.0 368.0 L 497.0 368.0 L 498.0 369.0 L 500.0 369.0 L 501.0 370.0 L 503.0 370.0 L 504.0 371.0 L 506.0 371.0 L 507.0 372.0 L 509.0 372.0 L 510.0 373.0 L 512.0 373.0 L 514.0 374.0 L 515.0 376.0 L 510.0 381.0 L 506.0 383.0 L 504.0 383.0 L 503.0 384.0 L 500.0 384.0 L 500.0 385.0 L 506.0 385.0 L 507.0 386.0 L 513.0 386.0 L 513.0 384.0 L 514.0 383.0 L 514.0 381.0 L 515.0 380.0 L 515.0 378.0 L 516.0 377.0 L 516.0 375.0 L 517.0 374.0 L 517.0 372.0 L 518.0 371.0 L 518.0 369.0 L 519.0 368.0 L 519.0 366.0 L 520.0 365.0 L 521.0 360.0 L 524.0 356.0 L 514.0 351.0 L 512.0 349.0 L 511.0 349.0 L 517.0 356.0 L 517.0 358.0 L 518.0 359.0 L 518.0 362.0 L 519.0 363.0 L 519.0 365.0 L 518.0 366.0 L 515.0 366.0 L 514.0 365.0 L 512.0 365.0 L 511.0 364.0 L 509.0 364.0 L 508.0 363.0 L 506.0 363.0 L 505.0 362.0 L 503.0 362.0 L 502.0 361.0 L 500.0 361.0 L 499.0 360.0 L 497.0 360.0 L 496.0 359.0 L 494.0 359.0 L 493.0 358.0 L 491.0 358.0 L 490.0 357.0 L 485.0 356.0 L 482.0 352.0 L 483.0 351.0 L 483.0 349.0 Z M 137.0 338.0 L 137.0 342.0 L 133.0 345.0 L 131.0 345.0 L 130.0 346.0 L 128.0 346.0 L 127.0 347.0 L 125.0 347.0 L 124.0 348.0 L 122.0 348.0 L 121.0 349.0 L 119.0 349.0 L 118.0 350.0 L 116.0 350.0 L 115.0 351.0 L 113.0 351.0 L 112.0 352.0 L 110.0 352.0 L 109.0 353.0 L 107.0 353.0 L 103.0 355.0 L 101.0 354.0 L 99.0 351.0 L 99.0 353.0 L 100.0 354.0 L 100.0 356.0 L 101.0 357.0 L 101.0 359.0 L 102.0 360.0 L 102.0 362.0 L 103.0 363.0 L 104.0 368.0 L 105.0 368.0 L 105.0 366.0 L 104.0 365.0 L 107.0 362.0 L 109.0 361.0 L 111.0 361.0 L 112.0 360.0 L 114.0 360.0 L 115.0 359.0 L 117.0 359.0 L 118.0 358.0 L 120.0 358.0 L 122.0 360.0 L 122.0 362.0 L 123.0 363.0 L 123.0 365.0 L 124.0 366.0 L 124.0 368.0 L 126.0 372.0 L 125.0 374.0 L 123.0 374.0 L 122.0 375.0 L 120.0 375.0 L 119.0 376.0 L 117.0 376.0 L 113.0 378.0 L 110.0 378.0 L 107.0 375.0 L 107.0 374.0 L 107.0 377.0 L 110.0 383.0 L 110.0 385.0 L 111.0 386.0 L 111.0 389.0 L 112.0 391.0 L 113.0 391.0 L 112.0 388.0 L 115.0 385.0 L 117.0 385.0 L 118.0 384.0 L 120.0 384.0 L 121.0 383.0 L 123.0 383.0 L 124.0 382.0 L 126.0 382.0 L 127.0 381.0 L 129.0 381.0 L 130.0 380.0 L 132.0 380.0 L 133.0 379.0 L 135.0 379.0 L 136.0 378.0 L 138.0 378.0 L 139.0 377.0 L 141.0 377.0 L 145.0 375.0 L 147.0 375.0 L 150.0 378.0 L 150.0 379.0 L 151.0 378.0 L 149.0 375.0 L 149.0 373.0 L 148.0 372.0 L 148.0 370.0 L 147.0 369.0 L 147.0 367.0 L 146.0 366.0 L 146.0 364.0 L 145.0 362.0 L 145.0 365.0 L 142.0 368.0 L 137.0 369.0 L 134.0 371.0 L 132.0 371.0 L 128.0 373.0 L 126.0 372.0 L 126.0 370.0 L 125.0 369.0 L 125.0 367.0 L 124.0 366.0 L 124.0 364.0 L 123.0 363.0 L 122.0 358.0 L 124.0 356.0 L 126.0 356.0 L 127.0 355.0 L 132.0 354.0 L 135.0 352.0 L 140.0 352.0 L 142.0 354.0 L 142.0 355.0 L 143.0 355.0 L 142.0 354.0 L 142.0 352.0 L 141.0 351.0 L 141.0 349.0 L 140.0 348.0 L 140.0 346.0 L 139.0 345.0 L 139.0 343.0 L 138.0 342.0 L 138.0 340.0 Z M 268.0 321.0 L 271.0 323.0 L 274.0 322.0 L 273.0 320.0 L 270.0 320.0 Z M 488.0 317.0 L 488.0 322.0 L 487.0 323.0 L 487.0 329.0 L 486.0 330.0 L 486.0 335.0 L 487.0 334.0 L 487.0 332.0 L 489.0 330.0 L 494.0 330.0 L 495.0 331.0 L 502.0 331.0 L 503.0 332.0 L 509.0 332.0 L 510.0 333.0 L 517.0 333.0 L 518.0 334.0 L 523.0 334.0 L 525.0 336.0 L 525.0 339.0 L 526.0 340.0 L 526.0 336.0 L 527.0 335.0 L 527.0 329.0 L 528.0 328.0 L 528.0 322.0 L 526.0 326.0 L 518.0 326.0 L 517.0 325.0 L 511.0 325.0 L 510.0 324.0 L 503.0 324.0 L 502.0 323.0 L 496.0 323.0 L 495.0 322.0 L 491.0 322.0 L 489.0 320.0 L 489.0 317.0 Z M 134.0 296.0 L 133.0 295.0 L 128.0 295.0 L 127.0 294.0 L 121.0 294.0 L 120.0 293.0 L 119.0 294.0 L 121.0 294.0 L 122.0 295.0 L 124.0 295.0 L 126.0 296.0 L 132.0 302.0 L 134.0 306.0 L 134.0 314.0 L 131.0 316.0 L 119.0 316.0 L 118.0 317.0 L 115.0 317.0 L 114.0 316.0 L 114.0 312.0 L 115.0 310.0 L 117.0 308.0 L 123.0 306.0 L 107.0 306.0 L 106.0 307.0 L 104.0 307.0 L 107.0 307.0 L 109.0 308.0 L 113.0 312.0 L 113.0 314.0 L 114.0 315.0 L 112.0 317.0 L 99.0 317.0 L 98.0 318.0 L 96.0 318.0 L 95.0 317.0 L 95.0 309.0 L 96.0 308.0 L 96.0 306.0 L 97.0 304.0 L 103.0 298.0 L 106.0 297.0 L 106.0 296.0 L 105.0 297.0 L 103.0 297.0 L 102.0 298.0 L 100.0 298.0 L 99.0 299.0 L 96.0 299.0 L 94.0 300.0 L 94.0 312.0 L 95.0 313.0 L 95.0 330.0 L 96.0 331.0 L 96.0 328.0 L 100.0 325.0 L 118.0 325.0 L 119.0 324.0 L 133.0 324.0 L 135.0 326.0 L 135.0 329.0 L 136.0 329.0 L 136.0 324.0 L 135.0 323.0 L 135.0 304.0 L 134.0 303.0 Z M 528.0 283.0 L 524.0 279.0 L 522.0 278.0 L 519.0 278.0 L 518.0 277.0 L 516.0 278.0 L 513.0 278.0 L 509.0 282.0 L 507.0 286.0 L 507.0 289.0 L 506.0 290.0 L 506.0 292.0 L 505.0 293.0 L 504.0 298.0 L 500.0 302.0 L 498.0 303.0 L 495.0 303.0 L 493.0 302.0 L 489.0 298.0 L 489.0 296.0 L 488.0 295.0 L 488.0 290.0 L 489.0 289.0 L 489.0 287.0 L 494.0 282.0 L 500.0 279.0 L 503.0 279.0 L 505.0 278.0 L 491.0 278.0 L 490.0 279.0 L 488.0 279.0 L 490.0 281.0 L 490.0 283.0 L 488.0 287.0 L 488.0 298.0 L 490.0 302.0 L 494.0 306.0 L 496.0 307.0 L 498.0 307.0 L 499.0 308.0 L 504.0 308.0 L 505.0 307.0 L 507.0 307.0 L 512.0 302.0 L 512.0 300.0 L 514.0 296.0 L 514.0 293.0 L 515.0 292.0 L 515.0 290.0 L 516.0 289.0 L 516.0 287.0 L 517.0 285.0 L 521.0 282.0 L 524.0 282.0 L 526.0 283.0 L 529.0 287.0 L 529.0 294.0 L 527.0 298.0 L 525.0 300.0 L 524.0 300.0 L 522.0 302.0 L 516.0 305.0 L 519.0 305.0 L 520.0 304.0 L 526.0 304.0 L 527.0 303.0 L 529.0 303.0 L 528.0 301.0 L 528.0 298.0 L 529.0 297.0 L 529.0 294.0 L 530.0 293.0 L 530.0 289.0 L 529.0 288.0 L 529.0 285.0 Z M 358.0 234.0 L 352.0 234.0 L 350.0 236.0 L 350.0 241.0 L 351.0 242.0 L 353.0 241.0 L 356.0 241.0 L 358.0 238.0 Z M 104.0 234.0 L 103.0 236.0 L 103.0 240.0 L 102.0 241.0 L 102.0 245.0 L 101.0 246.0 L 101.0 248.0 L 102.0 246.0 L 106.0 243.0 L 111.0 243.0 L 112.0 244.0 L 116.0 244.0 L 117.0 245.0 L 120.0 245.0 L 121.0 246.0 L 125.0 246.0 L 128.0 248.0 L 98.0 263.0 L 97.0 264.0 L 97.0 268.0 L 96.0 269.0 L 95.0 276.0 L 96.0 274.0 L 100.0 271.0 L 104.0 271.0 L 105.0 272.0 L 109.0 272.0 L 110.0 273.0 L 113.0 273.0 L 114.0 274.0 L 118.0 274.0 L 119.0 275.0 L 122.0 275.0 L 123.0 276.0 L 127.0 276.0 L 131.0 278.0 L 133.0 280.0 L 134.0 282.0 L 134.0 285.0 L 135.0 283.0 L 135.0 279.0 L 136.0 278.0 L 136.0 275.0 L 137.0 274.0 L 137.0 271.0 L 136.0 273.0 L 133.0 276.0 L 126.0 276.0 L 125.0 275.0 L 121.0 275.0 L 120.0 274.0 L 117.0 274.0 L 116.0 273.0 L 112.0 273.0 L 111.0 272.0 L 108.0 272.0 L 107.0 271.0 L 104.0 271.0 L 103.0 270.0 L 143.0 250.0 L 141.0 249.0 L 138.0 249.0 L 137.0 248.0 L 133.0 248.0 L 132.0 247.0 L 129.0 247.0 L 128.0 246.0 L 124.0 246.0 L 123.0 245.0 L 120.0 245.0 L 119.0 244.0 L 115.0 244.0 L 114.0 243.0 L 111.0 243.0 L 110.0 242.0 L 108.0 242.0 L 104.0 238.0 Z M 376.0 233.0 L 376.0 237.0 L 378.0 241.0 L 384.0 241.0 L 385.0 240.0 L 385.0 236.0 L 383.0 233.0 Z M 515.0 222.0 L 515.0 226.0 L 513.0 228.0 L 511.0 229.0 L 509.0 229.0 L 508.0 230.0 L 505.0 230.0 L 501.0 232.0 L 498.0 232.0 L 497.0 233.0 L 495.0 233.0 L 491.0 235.0 L 488.0 235.0 L 484.0 237.0 L 479.0 237.0 L 477.0 235.0 L 477.0 234.0 L 476.0 234.0 L 477.0 235.0 L 477.0 238.0 L 478.0 239.0 L 478.0 241.0 L 480.0 245.0 L 480.0 248.0 L 481.0 249.0 L 481.0 251.0 L 482.0 251.0 L 482.0 249.0 L 481.0 248.0 L 484.0 245.0 L 486.0 244.0 L 488.0 244.0 L 489.0 243.0 L 492.0 243.0 L 496.0 241.0 L 498.0 241.0 L 499.0 242.0 L 499.0 247.0 L 498.0 249.0 L 485.0 261.0 L 485.0 265.0 L 486.0 266.0 L 486.0 268.0 L 487.0 269.0 L 487.0 272.0 L 488.0 274.0 L 488.0 270.0 L 489.0 268.0 L 499.0 258.0 L 500.0 256.0 L 500.0 254.0 L 501.0 253.0 L 500.0 251.0 L 500.0 249.0 L 501.0 248.0 L 503.0 252.0 L 506.0 255.0 L 506.0 256.0 L 507.0 256.0 L 509.0 258.0 L 515.0 258.0 L 517.0 257.0 L 520.0 254.0 L 521.0 252.0 L 521.0 241.0 L 520.0 240.0 L 520.0 238.0 L 519.0 237.0 L 519.0 235.0 L 517.0 231.0 L 517.0 228.0 L 516.0 227.0 L 516.0 224.0 Z M 519.0 237.0 L 519.0 239.0 L 520.0 240.0 L 520.0 244.0 L 519.0 246.0 L 516.0 249.0 L 514.0 250.0 L 512.0 250.0 L 511.0 251.0 L 506.0 251.0 L 504.0 250.0 L 501.0 247.0 L 500.0 245.0 L 500.0 243.0 L 499.0 242.0 L 500.0 240.0 L 502.0 240.0 L 506.0 238.0 L 509.0 238.0 L 513.0 236.0 L 516.0 236.0 L 517.0 235.0 Z M 121.0 196.0 L 116.0 206.0 L 116.0 208.0 L 110.0 220.0 L 119.0 228.0 L 120.0 228.0 L 116.0 223.0 L 115.0 221.0 L 115.0 219.0 L 114.0 218.0 L 114.0 214.0 L 115.0 213.0 L 115.0 210.0 L 117.0 206.0 L 119.0 205.0 L 122.0 209.0 L 122.0 210.0 L 124.0 212.0 L 124.0 213.0 L 126.0 215.0 L 126.0 216.0 L 128.0 218.0 L 128.0 219.0 L 130.0 221.0 L 130.0 222.0 L 132.0 224.0 L 132.0 225.0 L 134.0 227.0 L 134.0 228.0 L 136.0 230.0 L 136.0 231.0 L 138.0 233.0 L 138.0 234.0 L 140.0 236.0 L 140.0 237.0 L 142.0 239.0 L 142.0 240.0 L 144.0 242.0 L 148.0 235.0 L 148.0 233.0 L 157.0 215.0 L 156.0 215.0 L 149.0 209.0 L 145.0 207.0 L 150.0 213.0 L 151.0 215.0 L 151.0 217.0 L 152.0 218.0 L 152.0 223.0 L 151.0 224.0 L 151.0 227.0 L 149.0 231.0 L 147.0 232.0 L 145.0 230.0 L 143.0 226.0 L 140.0 223.0 L 140.0 222.0 L 138.0 220.0 L 138.0 219.0 L 136.0 217.0 L 136.0 216.0 L 134.0 214.0 L 134.0 213.0 L 132.0 211.0 L 130.0 207.0 L 127.0 204.0 L 127.0 203.0 L 125.0 201.0 L 123.0 197.0 Z M 489.0 175.0 L 489.0 177.0 L 490.0 179.0 L 486.0 183.0 L 483.0 184.0 L 481.0 186.0 L 478.0 187.0 L 476.0 189.0 L 473.0 190.0 L 471.0 192.0 L 468.0 193.0 L 466.0 195.0 L 463.0 196.0 L 461.0 198.0 L 457.0 198.0 L 456.0 196.0 L 455.0 196.0 L 456.0 199.0 L 458.0 201.0 L 459.0 204.0 L 461.0 206.0 L 462.0 209.0 L 464.0 211.0 L 465.0 214.0 L 467.0 216.0 L 471.0 224.0 L 473.0 224.0 L 474.0 223.0 L 476.0 223.0 L 477.0 222.0 L 479.0 222.0 L 480.0 221.0 L 482.0 221.0 L 486.0 219.0 L 482.0 219.0 L 481.0 220.0 L 478.0 220.0 L 477.0 219.0 L 473.0 219.0 L 471.0 218.0 L 464.0 211.0 L 463.0 209.0 L 463.0 207.0 L 467.0 203.0 L 479.0 197.0 L 481.0 199.0 L 481.0 205.0 L 476.0 210.0 L 479.0 209.0 L 481.0 207.0 L 484.0 206.0 L 486.0 204.0 L 489.0 203.0 L 493.0 200.0 L 491.0 201.0 L 484.0 201.0 L 480.0 197.0 L 480.0 196.0 L 484.0 193.0 L 487.0 192.0 L 489.0 190.0 L 492.0 189.0 L 494.0 187.0 L 495.0 187.0 L 498.0 190.0 L 499.0 192.0 L 499.0 194.0 L 500.0 195.0 L 500.0 203.0 L 498.0 207.0 L 496.0 209.0 L 496.0 210.0 L 505.0 201.0 L 502.0 197.0 L 501.0 194.0 L 499.0 192.0 L 498.0 189.0 L 496.0 187.0 L 495.0 184.0 L 493.0 182.0 L 491.0 177.0 Z M 250.0 155.0 L 248.0 156.0 L 166.0 238.0 L 164.0 242.0 L 164.0 289.0 L 165.0 286.0 L 207.0 244.0 L 207.0 243.0 L 208.0 242.0 L 209.0 243.0 L 209.0 250.0 L 208.0 252.0 L 166.0 294.0 L 164.0 298.0 L 164.0 341.0 L 164.0 339.0 L 206.0 297.0 L 206.0 296.0 L 208.0 294.0 L 209.0 295.0 L 209.0 302.0 L 207.0 304.0 L 207.0 305.0 L 165.0 347.0 L 164.0 349.0 L 164.0 361.0 L 165.0 362.0 L 165.0 364.0 L 177.0 376.0 L 178.0 376.0 L 207.0 347.0 L 208.0 345.0 L 209.0 346.0 L 209.0 353.0 L 208.0 355.0 L 182.0 381.0 L 246.0 445.0 L 247.0 445.0 L 248.0 442.0 L 250.0 440.0 L 253.0 433.0 L 255.0 431.0 L 263.0 415.0 L 268.0 410.0 L 270.0 410.0 L 271.0 409.0 L 275.0 409.0 L 276.0 410.0 L 274.0 412.0 L 273.0 412.0 L 273.0 413.0 L 269.0 418.0 L 266.0 425.0 L 264.0 427.0 L 261.0 434.0 L 259.0 436.0 L 256.0 443.0 L 254.0 445.0 L 252.0 449.0 L 287.0 449.0 L 288.0 448.0 L 288.0 443.0 L 289.0 442.0 L 289.0 437.0 L 290.0 436.0 L 290.0 432.0 L 291.0 431.0 L 291.0 426.0 L 292.0 425.0 L 292.0 421.0 L 293.0 420.0 L 293.0 415.0 L 294.0 413.0 L 297.0 410.0 L 299.0 409.0 L 303.0 409.0 L 304.0 410.0 L 302.0 412.0 L 301.0 412.0 L 300.0 414.0 L 300.0 418.0 L 299.0 419.0 L 299.0 424.0 L 298.0 425.0 L 298.0 429.0 L 297.0 430.0 L 297.0 435.0 L 296.0 436.0 L 296.0 440.0 L 295.0 441.0 L 295.0 446.0 L 294.0 447.0 L 294.0 449.0 L 329.0 449.0 L 329.0 447.0 L 328.0 446.0 L 328.0 441.0 L 327.0 440.0 L 327.0 435.0 L 326.0 434.0 L 326.0 430.0 L 325.0 429.0 L 325.0 424.0 L 324.0 423.0 L 324.0 419.0 L 323.0 418.0 L 323.0 414.0 L 322.0 412.0 L 319.0 410.0 L 320.0 409.0 L 324.0 409.0 L 326.0 410.0 L 329.0 413.0 L 330.0 415.0 L 330.0 420.0 L 331.0 421.0 L 331.0 425.0 L 332.0 426.0 L 332.0 431.0 L 333.0 432.0 L 333.0 436.0 L 334.0 437.0 L 334.0 442.0 L 335.0 443.0 L 335.0 447.0 L 336.0 449.0 L 371.0 449.0 L 369.0 445.0 L 367.0 443.0 L 364.0 436.0 L 362.0 434.0 L 359.0 427.0 L 357.0 425.0 L 351.0 413.0 L 347.0 410.0 L 348.0 409.0 L 352.0 409.0 L 353.0 410.0 L 355.0 410.0 L 360.0 415.0 L 363.0 422.0 L 365.0 424.0 L 373.0 440.0 L 375.0 442.0 L 376.0 445.0 L 377.0 445.0 L 441.0 381.0 L 415.0 355.0 L 414.0 353.0 L 414.0 346.0 L 415.0 345.0 L 416.0 347.0 L 445.0 376.0 L 446.0 376.0 L 458.0 364.0 L 458.0 362.0 L 459.0 361.0 L 459.0 349.0 L 458.0 347.0 L 416.0 305.0 L 414.0 301.0 L 414.0 295.0 L 415.0 294.0 L 417.0 296.0 L 417.0 297.0 L 459.0 339.0 L 459.0 341.0 L 459.0 298.0 L 458.0 297.0 L 458.0 295.0 L 415.0 252.0 L 414.0 250.0 L 414.0 243.0 L 415.0 242.0 L 416.0 243.0 L 416.0 244.0 L 458.0 286.0 L 459.0 289.0 L 459.0 242.0 L 457.0 238.0 L 375.0 156.0 L 371.0 154.0 L 362.0 154.0 L 360.0 156.0 L 360.0 197.0 L 356.0 200.0 L 352.0 200.0 L 351.0 199.0 L 351.0 160.0 L 350.0 158.0 L 347.0 155.0 L 345.0 154.0 L 278.0 154.0 L 276.0 155.0 L 273.0 158.0 L 272.0 160.0 L 272.0 199.0 L 271.0 200.0 L 267.0 200.0 L 263.0 197.0 L 263.0 156.0 L 261.0 154.0 L 253.0 154.0 L 252.0 155.0 Z M 234.0 341.0 L 237.0 337.0 L 239.0 337.0 L 240.0 336.0 L 248.0 336.0 L 249.0 335.0 L 299.0 335.0 L 300.0 336.0 L 304.0 336.0 L 307.0 339.0 L 307.0 342.0 L 308.0 343.0 L 308.0 362.0 L 307.0 363.0 L 307.0 369.0 L 304.0 372.0 L 278.0 372.0 L 278.0 382.0 L 275.0 384.0 L 272.0 384.0 L 271.0 385.0 L 265.0 385.0 L 264.0 386.0 L 256.0 386.0 L 255.0 385.0 L 243.0 385.0 L 242.0 384.0 L 237.0 384.0 L 233.0 381.0 L 231.0 377.0 L 231.0 375.0 L 230.0 373.0 L 232.0 370.0 L 242.0 376.0 L 244.0 376.0 L 245.0 377.0 L 249.0 377.0 L 250.0 378.0 L 265.0 378.0 L 269.0 375.0 L 269.0 372.0 L 259.0 372.0 L 258.0 371.0 L 245.0 371.0 L 242.0 369.0 L 242.0 365.0 L 245.0 363.0 L 247.0 363.0 L 248.0 364.0 L 269.0 364.0 L 269.0 360.0 L 252.0 360.0 L 248.0 357.0 L 248.0 348.0 L 251.0 345.0 L 290.0 345.0 L 293.0 348.0 L 293.0 355.0 L 292.0 357.0 L 286.0 360.0 L 278.0 360.0 L 278.0 364.0 L 296.0 364.0 L 299.0 362.0 L 299.0 353.0 L 300.0 352.0 L 300.0 346.0 L 298.0 343.0 L 287.0 343.0 L 286.0 342.0 L 248.0 342.0 L 247.0 343.0 L 244.0 343.0 L 242.0 345.0 L 242.0 349.0 L 241.0 350.0 L 241.0 356.0 L 240.0 357.0 L 240.0 361.0 L 237.0 364.0 L 232.0 361.0 L 232.0 352.0 L 233.0 351.0 L 233.0 345.0 L 234.0 344.0 Z M 333.0 314.0 L 334.0 315.0 L 334.0 336.0 L 335.0 337.0 L 335.0 340.0 L 336.0 341.0 L 338.0 337.0 L 338.0 321.0 L 340.0 319.0 L 344.0 319.0 L 346.0 323.0 L 346.0 336.0 L 345.0 337.0 L 345.0 342.0 L 343.0 346.0 L 341.0 348.0 L 339.0 349.0 L 337.0 349.0 L 334.0 351.0 L 334.0 364.0 L 341.0 364.0 L 344.0 368.0 L 344.0 371.0 L 342.0 373.0 L 339.0 373.0 L 338.0 374.0 L 330.0 374.0 L 329.0 375.0 L 316.0 375.0 L 314.0 373.0 L 313.0 368.0 L 315.0 366.0 L 320.0 366.0 L 321.0 365.0 L 323.0 365.0 L 325.0 363.0 L 325.0 351.0 L 321.0 351.0 L 320.0 352.0 L 318.0 352.0 L 316.0 350.0 L 316.0 329.0 L 319.0 326.0 L 322.0 326.0 L 323.0 327.0 L 323.0 342.0 L 325.0 343.0 L 326.0 342.0 L 326.0 317.0 L 329.0 314.0 Z M 288.0 310.0 L 292.0 310.0 L 293.0 309.0 L 303.0 309.0 L 307.0 312.0 L 307.0 317.0 L 308.0 318.0 L 308.0 331.0 L 306.0 333.0 L 298.0 333.0 L 297.0 334.0 L 289.0 334.0 L 287.0 332.0 L 287.0 330.0 L 289.0 328.0 L 299.0 328.0 L 300.0 327.0 L 300.0 325.0 L 290.0 325.0 L 288.0 323.0 L 288.0 320.0 L 289.0 319.0 L 293.0 319.0 L 294.0 318.0 L 300.0 318.0 L 300.0 316.0 L 298.0 315.0 L 297.0 316.0 L 288.0 316.0 L 287.0 315.0 L 287.0 311.0 Z M 239.0 309.0 L 254.0 309.0 L 255.0 310.0 L 256.0 313.0 L 254.0 315.0 L 251.0 315.0 L 250.0 316.0 L 243.0 316.0 L 243.0 319.0 L 254.0 319.0 L 255.0 320.0 L 255.0 322.0 L 253.0 324.0 L 245.0 324.0 L 242.0 326.0 L 243.0 327.0 L 254.0 327.0 L 255.0 328.0 L 255.0 332.0 L 254.0 333.0 L 246.0 333.0 L 245.0 334.0 L 236.0 334.0 L 234.0 332.0 L 234.0 323.0 L 235.0 322.0 L 235.0 315.0 L 236.0 314.0 L 236.0 312.0 Z M 382.0 308.0 L 386.0 308.0 L 389.0 310.0 L 392.0 316.0 L 392.0 321.0 L 393.0 322.0 L 393.0 326.0 L 392.0 327.0 L 392.0 334.0 L 391.0 335.0 L 391.0 338.0 L 388.0 343.0 L 388.0 345.0 L 386.0 348.0 L 386.0 350.0 L 385.0 351.0 L 385.0 354.0 L 384.0 355.0 L 384.0 357.0 L 385.0 358.0 L 385.0 363.0 L 386.0 364.0 L 386.0 368.0 L 387.0 369.0 L 388.0 376.0 L 390.0 380.0 L 390.0 383.0 L 389.0 384.0 L 385.0 384.0 L 382.0 382.0 L 380.0 378.0 L 379.0 373.0 L 378.0 372.0 L 378.0 369.0 L 377.0 368.0 L 377.0 363.0 L 376.0 362.0 L 376.0 353.0 L 377.0 352.0 L 377.0 349.0 L 381.0 341.0 L 381.0 339.0 L 382.0 338.0 L 382.0 336.0 L 384.0 332.0 L 384.0 321.0 L 383.0 320.0 L 383.0 316.0 L 381.0 312.0 L 381.0 309.0 Z M 367.0 308.0 L 372.0 308.0 L 375.0 311.0 L 377.0 315.0 L 377.0 317.0 L 378.0 318.0 L 378.0 321.0 L 379.0 322.0 L 379.0 327.0 L 378.0 328.0 L 378.0 331.0 L 377.0 332.0 L 377.0 334.0 L 376.0 335.0 L 375.0 340.0 L 373.0 343.0 L 373.0 345.0 L 371.0 348.0 L 371.0 350.0 L 370.0 351.0 L 370.0 354.0 L 369.0 355.0 L 369.0 358.0 L 370.0 359.0 L 370.0 366.0 L 371.0 367.0 L 371.0 371.0 L 372.0 372.0 L 372.0 375.0 L 375.0 381.0 L 375.0 383.0 L 373.0 385.0 L 371.0 384.0 L 369.0 384.0 L 366.0 381.0 L 364.0 377.0 L 364.0 375.0 L 363.0 374.0 L 363.0 371.0 L 362.0 370.0 L 362.0 365.0 L 361.0 364.0 L 361.0 350.0 L 362.0 349.0 L 362.0 346.0 L 369.0 333.0 L 369.0 329.0 L 370.0 328.0 L 370.0 323.0 L 369.0 322.0 L 369.0 319.0 L 367.0 316.0 L 367.0 314.0 L 365.0 310.0 Z M 351.0 308.0 L 357.0 308.0 L 360.0 311.0 L 360.0 313.0 L 362.0 316.0 L 362.0 321.0 L 363.0 322.0 L 363.0 327.0 L 362.0 328.0 L 362.0 331.0 L 361.0 332.0 L 360.0 337.0 L 355.0 346.0 L 355.0 349.0 L 354.0 350.0 L 354.0 362.0 L 355.0 363.0 L 355.0 368.0 L 356.0 369.0 L 356.0 373.0 L 357.0 374.0 L 358.0 379.0 L 360.0 382.0 L 360.0 384.0 L 359.0 385.0 L 353.0 385.0 L 350.0 382.0 L 350.0 380.0 L 349.0 379.0 L 349.0 377.0 L 347.0 373.0 L 347.0 369.0 L 346.0 368.0 L 346.0 363.0 L 345.0 362.0 L 345.0 350.0 L 346.0 349.0 L 347.0 344.0 L 351.0 337.0 L 351.0 335.0 L 353.0 331.0 L 353.0 328.0 L 354.0 327.0 L 354.0 321.0 L 353.0 320.0 L 352.0 315.0 L 350.0 312.0 L 350.0 309.0 Z M 282.0 308.0 L 284.0 311.0 L 284.0 313.0 L 278.0 317.0 L 281.0 318.0 L 284.0 321.0 L 284.0 323.0 L 282.0 325.0 L 279.0 326.0 L 283.0 328.0 L 285.0 330.0 L 285.0 332.0 L 283.0 334.0 L 280.0 334.0 L 279.0 333.0 L 277.0 333.0 L 271.0 330.0 L 264.0 334.0 L 260.0 334.0 L 258.0 331.0 L 261.0 328.0 L 264.0 327.0 L 264.0 326.0 L 261.0 325.0 L 258.0 322.0 L 258.0 321.0 L 262.0 317.0 L 264.0 316.0 L 261.0 315.0 L 259.0 313.0 L 259.0 311.0 L 261.0 309.0 L 264.0 309.0 L 272.0 313.0 Z M 335.0 260.0 L 336.0 260.0 L 338.0 262.0 L 339.0 264.0 L 339.0 267.0 L 340.0 268.0 L 340.0 289.0 L 337.0 291.0 L 334.0 288.0 L 334.0 284.0 L 333.0 283.0 L 333.0 267.0 L 332.0 266.0 L 332.0 262.0 Z M 316.0 257.0 L 320.0 257.0 L 322.0 260.0 L 322.0 263.0 L 321.0 264.0 L 321.0 277.0 L 320.0 278.0 L 320.0 288.0 L 321.0 289.0 L 321.0 291.0 L 319.0 294.0 L 315.0 294.0 L 314.0 293.0 L 314.0 276.0 L 313.0 275.0 L 313.0 269.0 L 314.0 268.0 L 314.0 260.0 Z M 344.0 257.0 L 347.0 255.0 L 356.0 255.0 L 357.0 254.0 L 362.0 254.0 L 363.0 249.0 L 365.0 247.0 L 368.0 247.0 L 370.0 249.0 L 371.0 251.0 L 371.0 253.0 L 389.0 253.0 L 391.0 255.0 L 391.0 259.0 L 389.0 261.0 L 376.0 261.0 L 375.0 262.0 L 371.0 262.0 L 371.0 265.0 L 373.0 266.0 L 375.0 266.0 L 376.0 267.0 L 379.0 267.0 L 380.0 268.0 L 385.0 269.0 L 389.0 272.0 L 391.0 276.0 L 391.0 280.0 L 392.0 281.0 L 392.0 290.0 L 393.0 291.0 L 393.0 296.0 L 392.0 298.0 L 390.0 300.0 L 386.0 300.0 L 385.0 299.0 L 385.0 287.0 L 384.0 286.0 L 384.0 281.0 L 383.0 280.0 L 383.0 278.0 L 381.0 276.0 L 379.0 276.0 L 378.0 275.0 L 375.0 275.0 L 373.0 274.0 L 371.0 275.0 L 371.0 299.0 L 369.0 301.0 L 365.0 301.0 L 362.0 298.0 L 362.0 276.0 L 361.0 275.0 L 357.0 275.0 L 354.0 277.0 L 352.0 281.0 L 352.0 285.0 L 351.0 286.0 L 351.0 292.0 L 350.0 293.0 L 350.0 297.0 L 348.0 300.0 L 346.0 300.0 L 344.0 301.0 L 342.0 299.0 L 342.0 293.0 L 343.0 292.0 L 343.0 286.0 L 344.0 285.0 L 344.0 282.0 L 345.0 281.0 L 345.0 278.0 L 346.0 277.0 L 346.0 275.0 L 347.0 273.0 L 350.0 270.0 L 352.0 269.0 L 354.0 269.0 L 357.0 267.0 L 359.0 267.0 L 362.0 265.0 L 362.0 262.0 L 351.0 262.0 L 350.0 263.0 L 348.0 263.0 L 345.0 261.0 L 344.0 259.0 Z M 336.0 227.0 L 339.0 227.0 L 341.0 229.0 L 341.0 245.0 L 340.0 246.0 L 340.0 251.0 L 338.0 253.0 L 335.0 253.0 L 333.0 251.0 L 334.0 249.0 L 334.0 244.0 L 335.0 243.0 L 335.0 233.0 L 334.0 232.0 L 334.0 229.0 Z M 321.0 227.0 L 323.0 229.0 L 323.0 234.0 L 324.0 235.0 L 324.0 238.0 L 323.0 239.0 L 323.0 247.0 L 321.0 251.0 L 319.0 253.0 L 317.0 253.0 L 315.0 251.0 L 315.0 247.0 L 316.0 246.0 L 316.0 240.0 L 317.0 239.0 L 317.0 229.0 L 319.0 227.0 Z M 344.0 231.0 L 347.0 228.0 L 349.0 228.0 L 353.0 226.0 L 358.0 226.0 L 359.0 225.0 L 363.0 225.0 L 364.0 224.0 L 372.0 224.0 L 373.0 225.0 L 380.0 225.0 L 381.0 226.0 L 385.0 226.0 L 386.0 227.0 L 388.0 227.0 L 390.0 228.0 L 392.0 230.0 L 392.0 247.0 L 388.0 250.0 L 380.0 250.0 L 379.0 249.0 L 374.0 249.0 L 372.0 247.0 L 368.0 237.0 L 366.0 235.0 L 365.0 235.0 L 364.0 237.0 L 364.0 239.0 L 363.0 240.0 L 363.0 242.0 L 359.0 248.0 L 357.0 249.0 L 344.0 249.0 L 343.0 248.0 L 343.0 235.0 L 344.0 234.0 Z M 329.0 224.0 L 330.0 224.0 L 333.0 228.0 L 333.0 241.0 L 332.0 242.0 L 332.0 252.0 L 331.0 253.0 L 331.0 261.0 L 330.0 262.0 L 330.0 284.0 L 331.0 285.0 L 331.0 301.0 L 330.0 302.0 L 327.0 302.0 L 325.0 299.0 L 325.0 296.0 L 324.0 295.0 L 324.0 285.0 L 323.0 284.0 L 323.0 266.0 L 324.0 265.0 L 324.0 256.0 L 325.0 255.0 L 325.0 241.0 L 326.0 240.0 L 326.0 235.0 L 325.0 233.0 L 326.0 232.0 L 326.0 226.0 Z M 235.0 240.0 L 238.0 237.0 L 241.0 237.0 L 242.0 236.0 L 260.0 236.0 L 264.0 233.0 L 264.0 228.0 L 265.0 226.0 L 267.0 224.0 L 269.0 224.0 L 270.0 223.0 L 273.0 225.0 L 273.0 227.0 L 274.0 228.0 L 274.0 233.0 L 276.0 235.0 L 292.0 235.0 L 293.0 236.0 L 301.0 236.0 L 305.0 240.0 L 305.0 242.0 L 306.0 243.0 L 306.0 254.0 L 307.0 255.0 L 307.0 263.0 L 304.0 267.0 L 302.0 268.0 L 299.0 268.0 L 298.0 267.0 L 298.0 249.0 L 295.0 245.0 L 293.0 245.0 L 292.0 244.0 L 278.0 244.0 L 276.0 245.0 L 274.0 248.0 L 274.0 260.0 L 275.0 261.0 L 275.0 263.0 L 276.0 265.0 L 279.0 268.0 L 280.0 268.0 L 283.0 271.0 L 284.0 271.0 L 303.0 290.0 L 303.0 291.0 L 307.0 295.0 L 308.0 297.0 L 308.0 301.0 L 305.0 304.0 L 303.0 304.0 L 296.0 297.0 L 296.0 296.0 L 291.0 291.0 L 291.0 290.0 L 288.0 287.0 L 288.0 286.0 L 283.0 281.0 L 282.0 281.0 L 280.0 279.0 L 274.0 276.0 L 271.0 276.0 L 270.0 275.0 L 269.0 276.0 L 266.0 276.0 L 260.0 279.0 L 248.0 291.0 L 248.0 292.0 L 244.0 296.0 L 243.0 299.0 L 238.0 304.0 L 235.0 304.0 L 232.0 301.0 L 234.0 295.0 L 239.0 289.0 L 239.0 288.0 L 244.0 283.0 L 244.0 282.0 L 262.0 265.0 L 263.0 263.0 L 263.0 261.0 L 264.0 260.0 L 264.0 246.0 L 262.0 244.0 L 249.0 244.0 L 248.0 245.0 L 246.0 245.0 L 243.0 248.0 L 243.0 252.0 L 242.0 253.0 L 242.0 269.0 L 241.0 270.0 L 236.0 270.0 L 234.0 266.0 L 234.0 244.0 L 235.0 243.0 Z M 274.0 197.0 L 275.0 195.0 L 279.0 191.0 L 281.0 191.0 L 282.0 190.0 L 305.0 190.0 L 309.0 193.0 L 309.0 199.0 L 308.0 200.0 L 275.0 200.0 L 274.0 199.0 Z M 155.0 150.0 L 148.0 158.0 L 148.0 159.0 L 144.0 163.0 L 144.0 164.0 L 148.0 161.0 L 150.0 162.0 L 157.0 168.0 L 158.0 168.0 L 161.0 171.0 L 161.0 173.0 L 151.0 184.0 L 144.0 178.0 L 143.0 178.0 L 139.0 174.0 L 139.0 171.0 L 140.0 170.0 L 140.0 169.0 L 139.0 169.0 L 139.0 170.0 L 136.0 173.0 L 136.0 174.0 L 131.0 179.0 L 129.0 183.0 L 131.0 181.0 L 134.0 181.0 L 136.0 182.0 L 140.0 186.0 L 141.0 186.0 L 145.0 190.0 L 146.0 190.0 L 151.0 195.0 L 152.0 195.0 L 161.0 203.0 L 161.0 206.0 L 160.0 208.0 L 167.0 200.0 L 167.0 199.0 L 171.0 195.0 L 171.0 194.0 L 170.0 194.0 L 168.0 196.0 L 166.0 196.0 L 152.0 185.0 L 153.0 183.0 L 157.0 179.0 L 157.0 178.0 L 161.0 174.0 L 161.0 173.0 L 163.0 172.0 L 177.0 184.0 L 177.0 186.0 L 175.0 188.0 L 175.0 189.0 L 187.0 175.0 L 183.0 177.0 L 180.0 176.0 L 176.0 172.0 L 175.0 172.0 L 171.0 168.0 L 170.0 168.0 L 166.0 164.0 L 165.0 164.0 L 160.0 159.0 L 159.0 159.0 L 154.0 154.0 L 154.0 152.0 L 156.0 150.0 Z M 484.0 167.0 L 475.0 158.0 L 476.0 163.0 L 473.0 167.0 L 469.0 169.0 L 467.0 169.0 L 464.0 171.0 L 462.0 171.0 L 459.0 173.0 L 457.0 173.0 L 456.0 174.0 L 454.0 174.0 L 452.0 175.0 L 451.0 173.0 L 456.0 164.0 L 456.0 162.0 L 461.0 152.0 L 464.0 149.0 L 466.0 149.0 L 468.0 150.0 L 456.0 138.0 L 455.0 138.0 L 456.0 139.0 L 456.0 144.0 L 455.0 145.0 L 455.0 147.0 L 450.0 156.0 L 450.0 158.0 L 442.0 174.0 L 442.0 176.0 L 440.0 179.0 L 440.0 181.0 L 441.0 180.0 L 443.0 180.0 L 446.0 178.0 L 448.0 178.0 L 451.0 176.0 L 456.0 175.0 L 459.0 173.0 L 461.0 173.0 L 464.0 171.0 L 469.0 170.0 L 475.0 167.0 L 482.0 167.0 L 483.0 168.0 L 484.0 168.0 Z M 432.0 120.0 L 431.0 120.0 L 431.0 121.0 L 433.0 123.0 L 433.0 125.0 L 432.0 127.0 L 429.0 130.0 L 427.0 134.0 L 424.0 137.0 L 424.0 138.0 L 419.0 144.0 L 419.0 145.0 L 414.0 151.0 L 414.0 152.0 L 413.0 153.0 L 409.0 153.0 L 407.0 152.0 L 410.0 155.0 L 414.0 157.0 L 421.0 163.0 L 422.0 163.0 L 422.0 162.0 L 420.0 160.0 L 420.0 157.0 L 422.0 155.0 L 424.0 151.0 L 427.0 148.0 L 429.0 144.0 L 432.0 141.0 L 434.0 137.0 L 441.0 129.0 L 443.0 130.0 L 445.0 130.0 L 443.0 128.0 L 439.0 126.0 L 436.0 123.0 L 435.0 123.0 Z M 196.0 118.0 L 193.0 119.0 L 186.0 125.0 L 185.0 125.0 L 179.0 130.0 L 178.0 130.0 L 176.0 132.0 L 175.0 132.0 L 171.0 135.0 L 171.0 136.0 L 173.0 135.0 L 176.0 135.0 L 178.0 137.0 L 180.0 141.0 L 183.0 144.0 L 185.0 148.0 L 188.0 151.0 L 190.0 155.0 L 193.0 158.0 L 193.0 159.0 L 196.0 163.0 L 196.0 166.0 L 194.0 168.0 L 197.0 167.0 L 200.0 164.0 L 201.0 164.0 L 204.0 161.0 L 208.0 159.0 L 211.0 156.0 L 212.0 156.0 L 214.0 154.0 L 218.0 152.0 L 221.0 149.0 L 216.0 139.0 L 216.0 137.0 L 215.0 136.0 L 215.0 139.0 L 216.0 140.0 L 216.0 147.0 L 215.0 148.0 L 215.0 150.0 L 214.0 152.0 L 208.0 158.0 L 206.0 159.0 L 204.0 159.0 L 200.0 155.0 L 200.0 154.0 L 195.0 148.0 L 193.0 144.0 L 195.0 142.0 L 197.0 142.0 L 198.0 141.0 L 200.0 141.0 L 202.0 142.0 L 206.0 146.0 L 206.0 144.0 L 203.0 141.0 L 203.0 140.0 L 198.0 134.0 L 196.0 130.0 L 195.0 130.0 L 195.0 131.0 L 197.0 134.0 L 197.0 138.0 L 196.0 140.0 L 193.0 143.0 L 192.0 143.0 L 190.0 141.0 L 190.0 140.0 L 185.0 134.0 L 185.0 133.0 L 182.0 129.0 L 183.0 127.0 L 184.0 127.0 L 186.0 125.0 L 190.0 123.0 L 199.0 123.0 L 205.0 126.0 Z M 380.0 94.0 L 380.0 95.0 L 383.0 98.0 L 384.0 100.0 L 384.0 102.0 L 378.0 114.0 L 378.0 116.0 L 374.0 123.0 L 374.0 125.0 L 373.0 127.0 L 369.0 131.0 L 363.0 131.0 L 377.0 137.0 L 373.0 133.0 L 373.0 127.0 L 377.0 120.0 L 377.0 118.0 L 384.0 104.0 L 386.0 107.0 L 386.0 110.0 L 387.0 111.0 L 387.0 114.0 L 388.0 115.0 L 388.0 118.0 L 389.0 119.0 L 389.0 122.0 L 391.0 126.0 L 391.0 129.0 L 392.0 130.0 L 392.0 133.0 L 393.0 134.0 L 393.0 137.0 L 394.0 138.0 L 394.0 141.0 L 395.0 142.0 L 395.0 145.0 L 396.0 147.0 L 402.0 135.0 L 402.0 133.0 L 405.0 128.0 L 405.0 126.0 L 409.0 119.0 L 409.0 117.0 L 412.0 113.0 L 416.0 111.0 L 419.0 112.0 L 419.0 111.0 L 417.0 111.0 L 410.0 107.0 L 408.0 107.0 L 406.0 106.0 L 410.0 110.0 L 410.0 115.0 L 403.0 129.0 L 403.0 131.0 L 401.0 133.0 L 400.0 132.0 L 400.0 129.0 L 399.0 128.0 L 399.0 125.0 L 397.0 121.0 L 397.0 118.0 L 396.0 117.0 L 396.0 114.0 L 395.0 113.0 L 395.0 110.0 L 394.0 109.0 L 394.0 106.0 L 393.0 105.0 L 393.0 102.0 L 392.0 100.0 Z M 255.0 91.0 L 242.0 96.0 L 246.0 96.0 L 250.0 99.0 L 252.0 103.0 L 253.0 108.0 L 255.0 111.0 L 256.0 116.0 L 257.0 117.0 L 256.0 119.0 L 252.0 116.0 L 242.0 111.0 L 240.0 109.0 L 237.0 108.0 L 235.0 106.0 L 232.0 105.0 L 228.0 102.0 L 225.0 102.0 L 222.0 104.0 L 220.0 104.0 L 219.0 105.0 L 217.0 105.0 L 215.0 106.0 L 215.0 107.0 L 216.0 106.0 L 221.0 107.0 L 223.0 109.0 L 224.0 111.0 L 224.0 113.0 L 226.0 116.0 L 227.0 121.0 L 229.0 124.0 L 230.0 129.0 L 232.0 132.0 L 232.0 134.0 L 233.0 135.0 L 233.0 140.0 L 229.0 144.0 L 231.0 143.0 L 233.0 143.0 L 236.0 141.0 L 241.0 140.0 L 242.0 139.0 L 237.0 139.0 L 234.0 136.0 L 232.0 132.0 L 232.0 130.0 L 230.0 127.0 L 229.0 122.0 L 227.0 119.0 L 226.0 114.0 L 224.0 111.0 L 225.0 110.0 L 228.0 111.0 L 233.0 115.0 L 236.0 116.0 L 238.0 118.0 L 241.0 119.0 L 243.0 121.0 L 246.0 122.0 L 248.0 124.0 L 251.0 125.0 L 253.0 127.0 L 256.0 128.0 L 258.0 130.0 L 261.0 131.0 L 263.0 133.0 L 263.0 131.0 L 262.0 130.0 L 261.0 125.0 L 259.0 122.0 L 258.0 117.0 L 256.0 114.0 L 255.0 109.0 L 253.0 106.0 L 253.0 104.0 L 251.0 100.0 L 251.0 95.0 L 254.0 92.0 L 255.0 92.0 Z M 326.0 84.0 L 330.0 87.0 L 330.0 95.0 L 329.0 96.0 L 329.0 101.0 L 328.0 102.0 L 328.0 107.0 L 327.0 108.0 L 327.0 114.0 L 326.0 115.0 L 326.0 119.0 L 327.0 121.0 L 332.0 126.0 L 334.0 126.0 L 338.0 128.0 L 347.0 128.0 L 348.0 127.0 L 350.0 127.0 L 354.0 123.0 L 355.0 121.0 L 355.0 119.0 L 356.0 118.0 L 356.0 113.0 L 357.0 112.0 L 357.0 107.0 L 358.0 106.0 L 358.0 100.0 L 359.0 99.0 L 359.0 97.0 L 361.0 93.0 L 364.0 91.0 L 366.0 91.0 L 366.0 90.0 L 361.0 90.0 L 360.0 89.0 L 355.0 89.0 L 353.0 88.0 L 358.0 93.0 L 358.0 102.0 L 357.0 103.0 L 357.0 108.0 L 356.0 109.0 L 356.0 115.0 L 355.0 116.0 L 355.0 119.0 L 354.0 120.0 L 354.0 122.0 L 349.0 127.0 L 346.0 127.0 L 345.0 128.0 L 343.0 128.0 L 342.0 127.0 L 340.0 127.0 L 338.0 126.0 L 336.0 124.0 L 334.0 120.0 L 334.0 115.0 L 335.0 114.0 L 335.0 109.0 L 336.0 108.0 L 336.0 103.0 L 337.0 102.0 L 337.0 96.0 L 338.0 95.0 L 338.0 90.0 L 341.0 87.0 L 344.0 87.0 L 342.0 86.0 L 336.0 86.0 L 335.0 85.0 L 330.0 85.0 L 329.0 84.0 Z M 298.0 59.0 L 297.0 60.0 L 286.0 60.0 L 285.0 61.0 L 278.0 61.0 L 277.0 62.0 L 271.0 62.0 L 270.0 63.0 L 266.0 63.0 L 265.0 64.0 L 256.0 65.0 L 255.0 66.0 L 248.0 67.0 L 244.0 69.0 L 241.0 69.0 L 240.0 70.0 L 238.0 70.0 L 237.0 71.0 L 235.0 71.0 L 234.0 72.0 L 229.0 73.0 L 226.0 75.0 L 221.0 76.0 L 216.0 79.0 L 214.0 79.0 L 190.0 91.0 L 185.0 95.0 L 182.0 96.0 L 180.0 98.0 L 179.0 98.0 L 177.0 100.0 L 176.0 100.0 L 174.0 102.0 L 170.0 104.0 L 167.0 107.0 L 166.0 107.0 L 163.0 110.0 L 162.0 110.0 L 158.0 114.0 L 157.0 114.0 L 152.0 119.0 L 151.0 119.0 L 129.0 141.0 L 129.0 142.0 L 123.0 148.0 L 123.0 149.0 L 119.0 153.0 L 119.0 154.0 L 113.0 161.0 L 113.0 162.0 L 107.0 170.0 L 106.0 173.0 L 102.0 178.0 L 100.0 183.0 L 98.0 185.0 L 90.0 201.0 L 90.0 203.0 L 87.0 208.0 L 87.0 210.0 L 83.0 218.0 L 83.0 220.0 L 82.0 221.0 L 82.0 223.0 L 81.0 224.0 L 81.0 226.0 L 80.0 227.0 L 80.0 229.0 L 78.0 233.0 L 78.0 236.0 L 77.0 237.0 L 77.0 240.0 L 76.0 241.0 L 76.0 244.0 L 75.0 245.0 L 75.0 248.0 L 74.0 249.0 L 73.0 258.0 L 72.0 259.0 L 72.0 264.0 L 71.0 265.0 L 71.0 270.0 L 70.0 271.0 L 70.0 280.0 L 69.0 281.0 L 69.0 323.0 L 70.0 324.0 L 70.0 333.0 L 71.0 334.0 L 71.0 339.0 L 72.0 340.0 L 72.0 345.0 L 73.0 346.0 L 74.0 355.0 L 75.0 356.0 L 75.0 359.0 L 76.0 360.0 L 77.0 367.0 L 79.0 371.0 L 79.0 374.0 L 80.0 375.0 L 80.0 377.0 L 81.0 378.0 L 82.0 383.0 L 84.0 386.0 L 85.0 391.0 L 87.0 394.0 L 87.0 396.0 L 90.0 401.0 L 90.0 403.0 L 97.0 417.0 L 99.0 419.0 L 101.0 424.0 L 103.0 426.0 L 107.0 434.0 L 109.0 436.0 L 111.0 440.0 L 114.0 443.0 L 114.0 444.0 L 117.0 447.0 L 117.0 448.0 L 120.0 451.0 L 120.0 452.0 L 129.0 462.0 L 129.0 463.0 L 150.0 484.0 L 151.0 484.0 L 157.0 490.0 L 158.0 490.0 L 162.0 494.0 L 163.0 494.0 L 170.0 500.0 L 171.0 500.0 L 182.0 508.0 L 190.0 512.0 L 192.0 514.0 L 214.0 525.0 L 216.0 525.0 L 224.0 529.0 L 229.0 530.0 L 232.0 532.0 L 234.0 532.0 L 238.0 534.0 L 241.0 534.0 L 245.0 536.0 L 248.0 536.0 L 252.0 538.0 L 255.0 538.0 L 256.0 539.0 L 260.0 539.0 L 261.0 540.0 L 265.0 540.0 L 266.0 541.0 L 270.0 541.0 L 271.0 542.0 L 277.0 542.0 L 278.0 543.0 L 285.0 543.0 L 286.0 544.0 L 298.0 544.0 L 299.0 545.0 L 324.0 545.0 L 325.0 544.0 L 337.0 544.0 L 338.0 543.0 L 345.0 543.0 L 346.0 542.0 L 352.0 542.0 L 353.0 541.0 L 357.0 541.0 L 358.0 540.0 L 367.0 539.0 L 368.0 538.0 L 375.0 537.0 L 376.0 536.0 L 378.0 536.0 L 382.0 534.0 L 385.0 534.0 L 386.0 533.0 L 388.0 533.0 L 389.0 532.0 L 394.0 531.0 L 397.0 529.0 L 402.0 528.0 L 407.0 525.0 L 409.0 525.0 L 431.0 514.0 L 433.0 512.0 L 436.0 511.0 L 438.0 509.0 L 441.0 508.0 L 443.0 506.0 L 444.0 506.0 L 446.0 504.0 L 447.0 504.0 L 449.0 502.0 L 453.0 500.0 L 456.0 497.0 L 457.0 497.0 L 460.0 494.0 L 461.0 494.0 L 465.0 490.0 L 466.0 490.0 L 471.0 485.0 L 472.0 485.0 L 494.0 463.0 L 494.0 462.0 L 500.0 456.0 L 500.0 455.0 L 504.0 451.0 L 504.0 450.0 L 510.0 443.0 L 510.0 442.0 L 518.0 431.0 L 519.0 428.0 L 521.0 426.0 L 523.0 421.0 L 525.0 419.0 L 534.0 401.0 L 534.0 399.0 L 536.0 396.0 L 536.0 394.0 L 540.0 386.0 L 540.0 384.0 L 541.0 383.0 L 541.0 381.0 L 542.0 380.0 L 542.0 378.0 L 543.0 377.0 L 543.0 375.0 L 545.0 371.0 L 545.0 368.0 L 546.0 367.0 L 546.0 365.0 L 547.0 364.0 L 547.0 361.0 L 548.0 360.0 L 548.0 357.0 L 549.0 356.0 L 550.0 347.0 L 551.0 346.0 L 551.0 341.0 L 552.0 340.0 L 552.0 334.0 L 553.0 333.0 L 553.0 325.0 L 554.0 324.0 L 554.0 305.0 L 555.0 304.0 L 555.0 300.0 L 554.0 299.0 L 554.0 280.0 L 553.0 279.0 L 553.0 271.0 L 552.0 270.0 L 552.0 264.0 L 551.0 263.0 L 551.0 258.0 L 550.0 257.0 L 550.0 253.0 L 549.0 252.0 L 549.0 248.0 L 548.0 247.0 L 548.0 244.0 L 547.0 243.0 L 546.0 236.0 L 545.0 235.0 L 545.0 233.0 L 544.0 232.0 L 544.0 230.0 L 543.0 229.0 L 543.0 227.0 L 542.0 226.0 L 542.0 224.0 L 541.0 223.0 L 540.0 218.0 L 538.0 215.0 L 537.0 210.0 L 534.0 205.0 L 534.0 203.0 L 525.0 185.0 L 523.0 183.0 L 521.0 178.0 L 519.0 176.0 L 518.0 173.0 L 516.0 171.0 L 516.0 170.0 L 514.0 168.0 L 514.0 167.0 L 512.0 165.0 L 510.0 161.0 L 507.0 158.0 L 507.0 157.0 L 504.0 154.0 L 504.0 153.0 L 500.0 149.0 L 500.0 148.0 L 495.0 143.0 L 495.0 142.0 L 472.0 119.0 L 471.0 119.0 L 466.0 114.0 L 465.0 114.0 L 461.0 110.0 L 460.0 110.0 L 453.0 104.0 L 452.0 104.0 L 450.0 102.0 L 449.0 102.0 L 438.0 94.0 L 435.0 93.0 L 433.0 91.0 L 407.0 78.0 L 405.0 78.0 L 402.0 76.0 L 397.0 75.0 L 394.0 73.0 L 392.0 73.0 L 391.0 72.0 L 389.0 72.0 L 388.0 71.0 L 386.0 71.0 L 382.0 69.0 L 379.0 69.0 L 375.0 67.0 L 372.0 67.0 L 371.0 66.0 L 368.0 66.0 L 367.0 65.0 L 363.0 65.0 L 362.0 64.0 L 358.0 64.0 L 357.0 63.0 L 353.0 63.0 L 352.0 62.0 L 346.0 62.0 L 345.0 61.0 L 338.0 61.0 L 337.0 60.0 L 326.0 60.0 L 325.0 59.0 Z M 293.0 67.0 L 330.0 67.0 L 331.0 68.0 L 340.0 68.0 L 341.0 69.0 L 347.0 69.0 L 348.0 70.0 L 353.0 70.0 L 354.0 71.0 L 363.0 72.0 L 364.0 73.0 L 367.0 73.0 L 368.0 74.0 L 371.0 74.0 L 372.0 75.0 L 375.0 75.0 L 376.0 76.0 L 378.0 76.0 L 382.0 78.0 L 385.0 78.0 L 386.0 79.0 L 388.0 79.0 L 391.0 81.0 L 396.0 82.0 L 406.0 87.0 L 408.0 87.0 L 424.0 95.0 L 426.0 97.0 L 431.0 99.0 L 433.0 101.0 L 436.0 102.0 L 438.0 104.0 L 439.0 104.0 L 441.0 106.0 L 442.0 106.0 L 444.0 108.0 L 448.0 110.0 L 451.0 113.0 L 452.0 113.0 L 455.0 116.0 L 456.0 116.0 L 461.0 121.0 L 462.0 121.0 L 468.0 127.0 L 469.0 127.0 L 486.0 144.0 L 486.0 145.0 L 497.0 157.0 L 497.0 158.0 L 503.0 165.0 L 503.0 166.0 L 505.0 168.0 L 505.0 169.0 L 513.0 180.0 L 514.0 183.0 L 516.0 185.0 L 519.0 192.0 L 521.0 194.0 L 523.0 198.0 L 523.0 200.0 L 531.0 216.0 L 531.0 218.0 L 534.0 224.0 L 534.0 226.0 L 536.0 230.0 L 536.0 233.0 L 537.0 234.0 L 537.0 236.0 L 539.0 240.0 L 539.0 243.0 L 540.0 244.0 L 540.0 247.0 L 541.0 248.0 L 541.0 252.0 L 542.0 253.0 L 542.0 256.0 L 543.0 257.0 L 543.0 262.0 L 544.0 263.0 L 544.0 268.0 L 545.0 269.0 L 545.0 277.0 L 546.0 278.0 L 546.0 289.0 L 547.0 290.0 L 547.0 314.0 L 546.0 315.0 L 546.0 326.0 L 545.0 327.0 L 545.0 335.0 L 544.0 336.0 L 544.0 341.0 L 543.0 342.0 L 543.0 346.0 L 542.0 347.0 L 541.0 356.0 L 540.0 357.0 L 540.0 360.0 L 539.0 361.0 L 539.0 364.0 L 538.0 365.0 L 538.0 367.0 L 536.0 371.0 L 536.0 374.0 L 535.0 375.0 L 535.0 377.0 L 533.0 380.0 L 533.0 382.0 L 532.0 383.0 L 531.0 388.0 L 528.0 393.0 L 528.0 395.0 L 516.0 419.0 L 514.0 421.0 L 513.0 424.0 L 511.0 426.0 L 511.0 427.0 L 509.0 429.0 L 509.0 430.0 L 507.0 432.0 L 507.0 433.0 L 505.0 435.0 L 503.0 439.0 L 500.0 442.0 L 500.0 443.0 L 497.0 446.0 L 497.0 447.0 L 492.0 452.0 L 492.0 453.0 L 485.0 460.0 L 485.0 461.0 L 470.0 476.0 L 469.0 476.0 L 462.0 483.0 L 461.0 483.0 L 457.0 487.0 L 456.0 487.0 L 445.0 496.0 L 444.0 496.0 L 439.0 500.0 L 436.0 501.0 L 434.0 503.0 L 431.0 504.0 L 429.0 506.0 L 424.0 508.0 L 422.0 510.0 L 408.0 517.0 L 406.0 517.0 L 396.0 522.0 L 394.0 522.0 L 393.0 523.0 L 391.0 523.0 L 390.0 524.0 L 388.0 524.0 L 387.0 525.0 L 385.0 525.0 L 384.0 526.0 L 382.0 526.0 L 381.0 527.0 L 379.0 527.0 L 375.0 529.0 L 372.0 529.0 L 371.0 530.0 L 368.0 530.0 L 367.0 531.0 L 364.0 531.0 L 363.0 532.0 L 359.0 532.0 L 358.0 533.0 L 354.0 533.0 L 353.0 534.0 L 348.0 534.0 L 347.0 535.0 L 341.0 535.0 L 340.0 536.0 L 331.0 536.0 L 330.0 537.0 L 293.0 537.0 L 292.0 536.0 L 284.0 536.0 L 283.0 535.0 L 277.0 535.0 L 276.0 534.0 L 270.0 534.0 L 269.0 533.0 L 265.0 533.0 L 264.0 532.0 L 260.0 532.0 L 259.0 531.0 L 256.0 531.0 L 255.0 530.0 L 248.0 529.0 L 247.0 528.0 L 245.0 528.0 L 244.0 527.0 L 242.0 527.0 L 241.0 526.0 L 239.0 526.0 L 238.0 525.0 L 236.0 525.0 L 235.0 524.0 L 230.0 523.0 L 222.0 519.0 L 220.0 519.0 L 215.0 516.0 L 213.0 516.0 L 201.0 510.0 L 199.0 508.0 L 194.0 506.0 L 192.0 504.0 L 184.0 500.0 L 181.0 497.0 L 180.0 497.0 L 178.0 495.0 L 174.0 493.0 L 171.0 490.0 L 170.0 490.0 L 167.0 487.0 L 166.0 487.0 L 161.0 482.0 L 160.0 482.0 L 153.0 475.0 L 152.0 475.0 L 138.0 461.0 L 138.0 460.0 L 126.0 447.0 L 126.0 446.0 L 120.0 439.0 L 120.0 438.0 L 112.0 427.0 L 108.0 419.0 L 106.0 417.0 L 95.0 395.0 L 95.0 393.0 L 91.0 385.0 L 90.0 380.0 L 88.0 377.0 L 88.0 374.0 L 87.0 373.0 L 87.0 371.0 L 85.0 367.0 L 85.0 364.0 L 84.0 363.0 L 84.0 360.0 L 82.0 356.0 L 82.0 352.0 L 81.0 351.0 L 81.0 347.0 L 80.0 346.0 L 80.0 342.0 L 79.0 341.0 L 79.0 335.0 L 78.0 334.0 L 78.0 327.0 L 77.0 326.0 L 77.0 313.0 L 76.0 312.0 L 76.0 292.0 L 77.0 291.0 L 77.0 278.0 L 78.0 277.0 L 78.0 270.0 L 79.0 269.0 L 79.0 263.0 L 80.0 262.0 L 80.0 258.0 L 81.0 257.0 L 82.0 248.0 L 83.0 247.0 L 83.0 244.0 L 85.0 240.0 L 85.0 237.0 L 86.0 236.0 L 86.0 234.0 L 88.0 230.0 L 88.0 227.0 L 90.0 224.0 L 90.0 222.0 L 91.0 221.0 L 92.0 216.0 L 95.0 211.0 L 95.0 209.0 L 107.0 185.0 L 109.0 183.0 L 110.0 180.0 L 112.0 178.0 L 112.0 177.0 L 114.0 175.0 L 114.0 174.0 L 116.0 172.0 L 116.0 171.0 L 118.0 169.0 L 120.0 165.0 L 123.0 162.0 L 123.0 161.0 L 126.0 158.0 L 126.0 157.0 L 131.0 152.0 L 131.0 151.0 L 138.0 144.0 L 138.0 143.0 L 153.0 128.0 L 154.0 128.0 L 161.0 121.0 L 162.0 121.0 L 166.0 117.0 L 167.0 117.0 L 178.0 108.0 L 179.0 108.0 L 184.0 104.0 L 187.0 103.0 L 192.0 99.0 L 199.0 96.0 L 201.0 94.0 L 215.0 87.0 L 217.0 87.0 L 222.0 84.0 L 224.0 84.0 L 227.0 82.0 L 229.0 82.0 L 230.0 81.0 L 232.0 81.0 L 233.0 80.0 L 235.0 80.0 L 236.0 79.0 L 238.0 79.0 L 239.0 78.0 L 241.0 78.0 L 242.0 77.0 L 244.0 77.0 L 248.0 75.0 L 251.0 75.0 L 252.0 74.0 L 255.0 74.0 L 256.0 73.0 L 259.0 73.0 L 260.0 72.0 L 264.0 72.0 L 265.0 71.0 L 269.0 71.0 L 270.0 70.0 L 275.0 70.0 L 276.0 69.0 L 282.0 69.0 L 283.0 68.0 L 292.0 68.0 Z"/>
</g>
</svg>